<?xml version="1.0" encoding="utf-8"?>
<!-- Generator: Adobe Illustrator 24.1.0, SVG Export Plug-In . SVG Version: 6.00 Build 0)  -->
<svg version="1.1" id="Layer_1" xmlns="http://www.w3.org/2000/svg" xmlns:xlink="http://www.w3.org/1999/xlink" x="0px" y="0px"
	 viewBox="0 0 526 421.3" style="enable-background:new 0 0 526 421.3;" xml:space="preserve">
<style type="text/css">
	.st0{fill-rule:evenodd;clip-rule:evenodd;fill:#24B8EB;}
	.st1{fill:#FEBD86;}
	.st2{fill:#E0F6FD;}
	.st3{fill:#24B8EB;}
	.st4{fill:#66CDF1;}
	.st5{fill:#FFFFFF;stroke:#66CDF1;stroke-miterlimit:10;}
	.st6{fill:none;stroke:#24B8EB;stroke-miterlimit:10;}
	.st7{fill:#D3F1FB;}
	.st8{fill:none;stroke:#D3F1FB;stroke-miterlimit:10;}
	.st9{fill:none;stroke:#7CD4F3;stroke-miterlimit:10;}
	.st10{fill:#091F7A;}
	.st11{fill:url(#SVGID_1_);}
	.st12{fill:#02024C;}
	.st13{fill:#020531;}
	.st14{fill:#F8B524;}
	.st15{fill:#0A0A33;}
	.st16{fill:#003B5F;}
	.st17{fill:#202A54;}
	.st18{fill:#01305A;}
	.st19{fill:#E64550;}
	.st20{fill:#FF575B;}
	.st21{fill:#112B46;}
	.st22{fill:#FFFFFF;}
	.st23{fill:#000105;}
	.st24{fill:#4D4D4D;}
	.st25{fill:#808080;}
	.st26{fill:#BABABA;}
	.st27{fill:#F8B48A;}
	.st28{fill:#393D5D;}
	.st29{fill:#0072BE;}
	.st30{fill:#FAC80D;}
	.st31{fill:#1E2E3C;}
	.st32{fill:#E9F8FD;}
	.st33{fill:#91DBF5;}
	.st34{fill-rule:evenodd;clip-rule:evenodd;fill:#0B0277;}
	.st35{fill:#EDF7FB;}
	.st36{fill-rule:evenodd;clip-rule:evenodd;fill:#D3F1FB;}
	.st37{fill:#E7E6F1;}
	.st38{fill:#CECCE4;}
	.st39{fill-rule:evenodd;clip-rule:evenodd;fill:#F8B48A;}
	.st40{fill-rule:evenodd;clip-rule:evenodd;fill:#6B61A1;}
	.st41{fill-rule:evenodd;clip-rule:evenodd;fill:#FEBD86;}
	.st42{fill-rule:evenodd;clip-rule:evenodd;fill:#112B46;}
	.st43{fill-rule:evenodd;clip-rule:evenodd;fill:#F67476;}
	.st44{fill-rule:evenodd;clip-rule:evenodd;fill:#343D71;}
	.st45{fill-rule:evenodd;clip-rule:evenodd;fill:#025FA7;}
</style>
<g>
	<g transform="translate(1122.482 294.24)">
		<path class="st0" d="M-1120.6-140.6c-0.3-0.5-0.7-0.8-0.7-1c0.1-0.3,0.5-0.5,0.8-0.7c0.2,0.3,0.6,0.5,0.6,0.8
			C-1119.9-141.3-1120.2-141.1-1120.6-140.6z"/>
		<path class="st0" d="M-1105.5-140.6c-0.4-0.5-0.8-0.8-0.7-1c0.1-0.3,0.5-0.5,0.7-0.8c0.2,0.2,0.6,0.5,0.6,0.7
			C-1104.8-141.4-1105.2-141.1-1105.5-140.6z"/>
		<path class="st0" d="M-1090.5-140.6c-0.4-0.5-0.8-0.8-0.7-1c0.1-0.3,0.5-0.5,0.7-0.8c0.2,0.2,0.6,0.5,0.6,0.7
			C-1089.8-141.4-1090.2-141.1-1090.5-140.6z"/>
		<path class="st0" d="M-1075.5-140.6c-0.4-0.5-0.8-0.8-0.7-1c0.1-0.3,0.5-0.5,0.7-0.8c0.2,0.2,0.6,0.5,0.6,0.7
			C-1074.8-141.4-1075.2-141.1-1075.5-140.6z"/>
		<path class="st0" d="M-1060.5-140.6c-0.4-0.5-0.8-0.8-0.7-1c0.1-0.3,0.5-0.5,0.7-0.8c0.2,0.2,0.6,0.5,0.6,0.7
			C-1059.8-141.4-1060.2-141.1-1060.5-140.6z"/>
		<path class="st0" d="M-1045.5-140.6c-0.4-0.5-0.8-0.8-0.7-1c0.1-0.3,0.5-0.5,0.7-0.8c0.2,0.2,0.6,0.5,0.6,0.7
			C-1044.8-141.4-1045.2-141.1-1045.5-140.6z"/>
		<path class="st0" d="M-1030.5-142.7c0.3,0.5,0.7,0.8,0.7,1c0,0.3-0.4,0.5-0.6,0.8c-0.3-0.3-0.7-0.5-0.8-0.8
			C-1031.3-141.9-1030.9-142.2-1030.5-142.7z"/>
		<path class="st0" d="M-1014.5-141.6c-0.5,0.3-0.8,0.7-1,0.6c-0.3,0-0.5-0.4-0.8-0.6c0.3-0.3,0.5-0.6,0.8-0.7
			C-1015.3-142.4-1015-142-1014.5-141.6z"/>
		<path class="st0" d="M-1112-134.2c-0.4,0.3-0.7,0.7-1,0.7c-0.3,0-0.5-0.4-0.8-0.6c0.3-0.3,0.5-0.7,0.8-0.8
			C-1112.8-134.9-1112.5-134.5-1112-134.2z"/>
		<path class="st0" d="M-1098-135.2c0.3,0.5,0.7,0.8,0.7,1c0,0.3-0.4,0.5-0.6,0.8c-0.3-0.3-0.7-0.5-0.8-0.8
			C-1098.8-134.4-1098.4-134.7-1098-135.2z"/>
		<path class="st0" d="M-1082.9-135.2c0.3,0.5,0.6,0.8,0.6,1c0,0.3-0.4,0.5-0.7,0.7c-0.3-0.3-0.6-0.5-0.7-0.8
			C-1083.8-134.4-1083.3-134.7-1082.9-135.2z"/>
		<path class="st0" d="M-1068.1-133.1c-0.3-0.5-0.7-0.8-0.7-1c0.1-0.3,0.5-0.5,0.8-0.7c0.2,0.3,0.6,0.5,0.6,0.8
			C-1067.4-133.8-1067.7-133.6-1068.1-133.1z"/>
		<path class="st0" d="M-1052.9-133.1c-0.4-0.4-0.8-0.7-0.8-0.9c0.1-0.3,0.4-0.6,0.7-0.8c0.2,0.2,0.6,0.4,0.7,0.7
			C-1052.3-133.9-1052.6-133.6-1052.9-133.1z"/>
		<path class="st0" d="M-1038-133.1c-0.3-0.5-0.8-0.8-0.7-1c0.1-0.3,0.5-0.5,0.8-0.8c0.2,0.3,0.6,0.5,0.6,0.8
			C-1037.3-133.8-1037.7-133.6-1038-133.1z"/>
		<path class="st0" d="M-1022-134.1c-0.5,0.3-0.7,0.7-1,0.7c-0.3,0-0.5-0.4-0.8-0.6c0.3-0.3,0.5-0.6,0.8-0.7
			C-1022.8-134.9-1022.5-134.5-1022-134.1z"/>
		<path class="st0" d="M-1119.5-126.6c-0.5,0.3-0.8,0.7-1,0.6c-0.3,0-0.5-0.4-0.7-0.7c0.3-0.3,0.5-0.6,0.8-0.7
			C-1120.3-127.4-1120-127-1119.5-126.6z"/>
		<path class="st0" d="M-1104.5-126.6c-0.5,0.3-0.8,0.6-1,0.6c-0.3,0-0.5-0.4-0.7-0.7c0.3-0.2,0.5-0.6,0.8-0.7
			C-1105.2-127.4-1105-126.9-1104.5-126.6z"/>
		<path class="st0" d="M-1090.5-127.7c0.3,0.5,0.7,0.8,0.7,1c0,0.3-0.4,0.5-0.6,0.8c-0.3-0.3-0.7-0.5-0.8-0.8
			C-1091.3-126.9-1090.9-127.2-1090.5-127.7z"/>
		<path class="st0" d="M-1074.5-126.6c-0.5,0.3-0.8,0.7-1,0.7c-0.3,0-0.5-0.4-0.8-0.7c0.3-0.3,0.5-0.6,0.8-0.7
			C-1075.3-127.4-1075-127-1074.5-126.6z"/>
		<path class="st0" d="M-1060.5-125.6c-0.4-0.4-0.8-0.8-0.8-1c0.1-0.3,0.5-0.5,0.7-0.8c0.2,0.2,0.6,0.5,0.7,0.7
			S-1060.2-126.1-1060.5-125.6z"/>
		<path class="st0" d="M-1044.5-126.6c-0.5,0.3-0.8,0.6-1,0.6c-0.3,0-0.5-0.4-0.7-0.7c0.3-0.2,0.5-0.6,0.8-0.7
			C-1045.2-127.4-1044.9-126.9-1044.5-126.6z"/>
		<path class="st0" d="M-1029.5-126.6c-0.5,0.3-0.8,0.7-1,0.6c-0.3,0-0.5-0.4-0.7-0.7c0.3-0.3,0.5-0.6,0.8-0.7
			C-1030.2-127.4-1029.9-127-1029.5-126.6z"/>
		<path class="st0" d="M-1014.5-126.7c-0.4,0.4-0.7,0.8-0.9,0.8c-0.3-0.1-0.6-0.4-0.9-0.6c0.3-0.3,0.5-0.7,0.8-0.7
			C-1015.3-127.4-1015-127-1014.5-126.7z"/>
		<path class="st0" d="M-1112-119.1c-0.5,0.3-0.8,0.6-1,0.6c-0.3,0-0.5-0.4-0.7-0.7c0.3-0.2,0.5-0.6,0.8-0.7
			C-1112.8-119.9-1112.5-119.4-1112-119.1z"/>
		<path class="st0" d="M-1099.1-119.2c0.5-0.3,0.8-0.7,1-0.7c0.3,0.1,0.5,0.5,0.8,0.8c-0.3,0.2-0.5,0.6-0.8,0.6
			C-1098.4-118.5-1098.6-118.8-1099.1-119.2z"/>
		<path class="st0" d="M-1083-118.1c-0.4-0.5-0.8-0.8-0.7-1c0.1-0.3,0.5-0.5,0.7-0.8c0.2,0.2,0.6,0.5,0.6,0.7
			S-1082.7-118.6-1083-118.1z"/>
		<path class="st0" d="M-1068-118.1c-0.4-0.5-0.8-0.8-0.7-1c0.1-0.3,0.5-0.5,0.7-0.8c0.2,0.2,0.6,0.5,0.6,0.7
			S-1067.7-118.6-1068-118.1z"/>
		<path class="st0" d="M-1053-118.1c-0.4-0.5-0.8-0.8-0.7-1c0.1-0.3,0.5-0.5,0.7-0.8c0.2,0.2,0.6,0.5,0.6,0.7
			S-1052.7-118.6-1053-118.1z"/>
		<path class="st0" d="M-1038-118.1c-0.4-0.5-0.8-0.8-0.7-1c0.1-0.3,0.5-0.5,0.7-0.8c0.2,0.2,0.6,0.5,0.6,0.7
			S-1037.7-118.6-1038-118.1z"/>
		<path class="st0" d="M-1023-118.1c-0.4-0.5-0.8-0.8-0.7-1c0.1-0.3,0.5-0.5,0.7-0.8c0.2,0.2,0.6,0.5,0.6,0.7
			C-1022.3-118.9-1022.7-118.6-1023-118.1z"/>
		<path class="st0" d="M-1120.5-110.6c-0.4-0.5-0.8-0.8-0.7-1c0.1-0.3,0.5-0.5,0.7-0.8c0.2,0.2,0.6,0.5,0.6,0.7
			S-1120.2-111.1-1120.5-110.6z"/>
		<path class="st0" d="M-1105.5-110.6c-0.4-0.5-0.8-0.8-0.7-1c0.1-0.3,0.5-0.5,0.7-0.8c0.2,0.2,0.6,0.5,0.6,0.7
			S-1105.2-111.1-1105.5-110.6z"/>
		<path class="st0" d="M-1090.5-110.6c-0.4-0.5-0.8-0.8-0.7-1c0.1-0.3,0.5-0.5,0.7-0.8c0.2,0.2,0.6,0.5,0.6,0.7
			C-1089.8-111.4-1090.2-111.1-1090.5-110.6z"/>
		<path class="st0" d="M-1074.5-111.7c-0.4,0.4-0.7,0.7-1,0.7c-0.3,0-0.5-0.4-0.8-0.6c0.3-0.3,0.5-0.7,0.8-0.8
			C-1075.3-112.4-1075-112-1074.5-111.7z"/>
		<path class="st0" d="M-1060.5-110.6c-0.4-0.5-0.8-0.8-0.7-1c0.1-0.3,0.5-0.5,0.7-0.8c0.2,0.2,0.6,0.5,0.6,0.7
			S-1060.2-111.1-1060.5-110.6z"/>
		<path class="st0" d="M-1045.5-110.6c-0.4-0.5-0.8-0.8-0.7-1c0.1-0.3,0.5-0.5,0.7-0.8c0.2,0.2,0.6,0.5,0.6,0.7
			C-1044.8-111.4-1045.2-111.1-1045.5-110.6z"/>
		<path class="st0" d="M-1030.5-110.6c-0.4-0.5-0.8-0.8-0.7-1c0.1-0.3,0.5-0.5,0.7-0.8c0.2,0.2,0.6,0.5,0.6,0.7
			C-1029.8-111.4-1030.2-111.1-1030.5-110.6z"/>
		<path class="st0" d="M-1015.5-110.6c-0.4-0.5-0.8-0.8-0.7-1c0.1-0.3,0.5-0.5,0.7-0.8c0.2,0.2,0.6,0.5,0.6,0.7
			C-1014.8-111.4-1015.2-111.1-1015.5-110.6z"/>
		<path class="st0" d="M-1112-104.1c-0.5,0.3-0.8,0.6-1,0.6c-0.3,0-0.5-0.4-0.7-0.7c0.3-0.2,0.5-0.6,0.8-0.7
			C-1112.8-104.9-1112.5-104.4-1112-104.1z"/>
		<path class="st0" d="M-1097.9-103.1c-0.4-0.4-0.8-0.7-0.8-0.9c0.1-0.3,0.4-0.5,0.7-0.8c0.2,0.2,0.6,0.4,0.7,0.7
			S-1097.6-103.6-1097.9-103.1z"/>
		<path class="st0" d="M-1082.9-103.1c-0.4-0.4-0.8-0.7-0.8-0.9c0.1-0.3,0.4-0.5,0.7-0.8c0.2,0.2,0.6,0.4,0.7,0.7
			C-1082.3-103.9-1082.6-103.6-1082.9-103.1z"/>
		<path class="st0" d="M-1067-104.1c-0.5,0.3-0.8,0.7-1,0.6c-0.3,0-0.5-0.4-0.8-0.6c0.3-0.3,0.5-0.6,0.8-0.7
			C-1067.8-104.9-1067.5-104.4-1067-104.1z"/>
		<path class="st0" d="M-1053-103.1c-0.4-0.5-0.8-0.8-0.7-1c0.1-0.3,0.5-0.5,0.7-0.8c0.2,0.2,0.6,0.5,0.6,0.7
			S-1052.7-103.6-1053-103.1z"/>
		<path class="st0" d="M-1038-105.2c0.3,0.5,0.7,0.8,0.7,1c0,0.3-0.4,0.5-0.6,0.8c-0.3-0.3-0.7-0.5-0.8-0.8
			C-1038.8-104.4-1038.4-104.7-1038-105.2z"/>
		<path class="st0" d="M-1022.9-105.2c0.3,0.5,0.6,0.8,0.6,1c0,0.3-0.4,0.5-0.7,0.7c-0.3-0.3-0.6-0.5-0.7-0.8
			C-1023.8-104.4-1023.3-104.7-1022.9-105.2z"/>
		<path class="st0" d="M-1120.5-97.7c0.3,0.5,0.7,0.8,0.7,1c0,0.3-0.4,0.5-0.6,0.8c-0.3-0.3-0.7-0.5-0.8-0.8
			C-1121.3-96.9-1120.9-97.2-1120.5-97.7z"/>
		<path class="st0" d="M-1105.5-95.6c-0.4-0.4-0.8-0.8-0.8-1c0.1-0.3,0.5-0.5,0.7-0.8c0.2,0.2,0.6,0.5,0.7,0.7
			S-1105.2-96.1-1105.5-95.6z"/>
		<path class="st0" d="M-1090.5-95.6c-0.3-0.5-0.8-0.8-0.7-1c0.1-0.3,0.5-0.5,0.8-0.8c0.2,0.3,0.6,0.5,0.6,0.8
			S-1090.2-96.1-1090.5-95.6z"/>
		<path class="st0" d="M-1075.6-95.6c-0.3-0.5-0.7-0.8-0.7-1c0.1-0.3,0.5-0.5,0.8-0.7c0.2,0.3,0.6,0.5,0.6,0.8
			C-1074.9-96.3-1075.2-96.1-1075.6-95.6z"/>
		<path class="st0" d="M-1059.5-96.6c-0.4,0.3-0.8,0.7-1,0.7c-0.3-0.1-0.5-0.5-0.8-0.8c0.3-0.2,0.5-0.6,0.8-0.6
			C-1060.2-97.3-1060-97-1059.5-96.6z"/>
		<path class="st0" d="M-1045.6-95.6c-0.3-0.5-0.7-0.8-0.7-1c0.1-0.3,0.5-0.5,0.8-0.7c0.2,0.3,0.6,0.5,0.6,0.8
			C-1044.8-96.3-1045.2-96.1-1045.6-95.6z"/>
		<path class="st0" d="M-1030.5-97.7c0.3,0.5,0.7,0.8,0.7,1c0,0.3-0.4,0.5-0.6,0.8c-0.3-0.3-0.7-0.5-0.8-0.8
			C-1031.3-96.9-1030.9-97.2-1030.5-97.7z"/>
		<path class="st0" d="M-1015.4-97.7c0.3,0.5,0.6,0.8,0.6,1c0,0.3-0.4,0.5-0.7,0.7c-0.3-0.3-0.6-0.5-0.7-0.8
			C-1016.3-96.9-1015.8-97.2-1015.4-97.7z"/>
		<path class="st0" d="M-1112-89.1c-0.5,0.3-0.7,0.7-1,0.7c-0.3,0-0.5-0.4-0.8-0.6c0.3-0.3,0.5-0.7,0.8-0.7
			C-1112.8-89.9-1112.5-89.5-1112-89.1z"/>
		<path class="st0" d="M-1097-89.1c-0.5,0.3-0.8,0.7-1,0.6c-0.3,0-0.5-0.4-0.8-0.7c0.3-0.3,0.5-0.6,0.8-0.7
			C-1097.8-89.9-1097.5-89.4-1097-89.1z"/>
		<path class="st0" d="M-1082.9-88.1c-0.4-0.4-0.8-0.7-0.8-0.9c0.1-0.3,0.4-0.6,0.7-0.8c0.2,0.2,0.6,0.4,0.7,0.7
			C-1082.3-88.9-1082.6-88.6-1082.9-88.1z"/>
		<path class="st0" d="M-1068-90.2c0.3,0.5,0.7,0.8,0.7,1s-0.4,0.5-0.6,0.8c-0.3-0.3-0.7-0.5-0.8-0.8
			C-1068.8-89.4-1068.4-89.7-1068-90.2z"/>
		<path class="st0" d="M-1052-89.2c-0.4,0.4-0.7,0.8-0.9,0.8c-0.3-0.1-0.6-0.4-0.8-0.7c0.2-0.2,0.5-0.6,0.7-0.7
			C-1052.8-89.9-1052.5-89.5-1052-89.2z"/>
		<path class="st0" d="M-1038-88.1c-0.4-0.5-0.8-0.8-0.7-1c0.1-0.3,0.5-0.5,0.7-0.8c0.2,0.2,0.6,0.5,0.6,0.7S-1037.7-88.6-1038-88.1
			z"/>
		<path class="st0" d="M-1023-88.1c-0.4-0.4-0.8-0.8-0.8-0.9c0.1-0.3,0.5-0.5,0.7-0.8c0.2,0.2,0.6,0.5,0.7,0.7
			C-1022.3-88.9-1022.6-88.6-1023-88.1z"/>
		<path class="st0" d="M-1120.4-80.6c-0.4-0.4-0.8-0.7-0.8-0.9c0.1-0.3,0.4-0.5,0.7-0.8c0.2,0.2,0.6,0.4,0.7,0.7
			C-1119.8-81.4-1120.2-81.1-1120.4-80.6z"/>
		<path class="st0" d="M-1104.6-81.7c-0.4,0.4-0.7,0.8-0.9,0.8c-0.3-0.1-0.6-0.4-0.9-0.6c0.3-0.3,0.5-0.7,0.8-0.7
			C-1105.3-82.4-1105-82-1104.6-81.7z"/>
		<path class="st0" d="M-1090.5-80.6c-0.4-0.5-0.8-0.8-0.7-1c0.1-0.3,0.5-0.5,0.7-0.8c0.2,0.2,0.6,0.5,0.6,0.7
			C-1089.8-81.4-1090.2-81.1-1090.5-80.6z"/>
		<path class="st0" d="M-1075.5-80.6c-0.4-0.5-0.8-0.8-0.7-1c0.1-0.3,0.5-0.5,0.7-0.8c0.2,0.2,0.6,0.5,0.6,0.7
			S-1075.2-81.1-1075.5-80.6z"/>
		<path class="st0" d="M-1060.5-80.6c-0.4-0.5-0.8-0.8-0.7-1c0.1-0.3,0.5-0.5,0.7-0.8c0.2,0.2,0.6,0.5,0.6,0.7
			S-1060.2-81.1-1060.5-80.6z"/>
		<path class="st0" d="M-1045.5-80.6c-0.4-0.5-0.8-0.8-0.7-1c0.1-0.3,0.5-0.5,0.7-0.8c0.2,0.2,0.6,0.5,0.6,0.7
			C-1044.8-81.4-1045.2-81.1-1045.5-80.6z"/>
		<path class="st0" d="M-1031.5-81.7c0.4-0.3,0.8-0.7,1-0.7c0.3,0.1,0.5,0.5,0.8,0.8c-0.3,0.2-0.5,0.6-0.8,0.6
			C-1030.8-81-1031.1-81.3-1031.5-81.7z"/>
		<path class="st0" d="M-1014.5-81.7c-0.4,0.4-0.7,0.7-0.9,0.7c-0.3,0-0.5-0.4-0.8-0.6c0.3-0.3,0.5-0.7,0.8-0.8
			C-1015.3-82.4-1015-82-1014.5-81.7z"/>
		<path class="st0" d="M-1112-74c-0.5,0.3-0.8,0.6-1,0.6c-0.3,0-0.5-0.4-0.7-0.7c0.3-0.2,0.5-0.6,0.8-0.7
			C-1112.8-74.8-1112.5-74.4-1112-74z"/>
		<path class="st0" d="M-1098-73.1c-0.3-0.5-0.8-0.8-0.7-1c0.1-0.3,0.5-0.5,0.8-0.8c0.2,0.3,0.6,0.5,0.6,0.8S-1097.7-73.6-1098-73.1
			z"/>
		<path class="st0" d="M-1082-74.2c-0.4,0.3-0.7,0.7-1,0.7c-0.3,0-0.5-0.4-0.8-0.6c0.3-0.3,0.5-0.7,0.8-0.8
			C-1082.8-74.9-1082.5-74.5-1082-74.2z"/>
		<path class="st0" d="M-1068-75.2c0.3,0.5,0.7,0.8,0.7,1s-0.4,0.5-0.6,0.8c-0.3-0.3-0.7-0.5-0.8-0.8
			C-1068.8-74.4-1068.4-74.7-1068-75.2z"/>
		<path class="st0" d="M-1054-74.2c0.5-0.3,0.8-0.7,1-0.7c0.3,0.1,0.5,0.5,0.8,0.8c-0.3,0.2-0.5,0.6-0.8,0.6
			C-1053.3-73.5-1053.6-73.8-1054-74.2z"/>
		<path class="st0" d="M-1037-74.1c-0.5,0.3-0.7,0.7-1,0.7c-0.3,0-0.5-0.4-0.8-0.6c0.3-0.3,0.5-0.7,0.8-0.7
			C-1037.8-74.9-1037.5-74.5-1037-74.1z"/>
		<path class="st0" d="M-1022-74.2c-0.4,0.4-0.7,0.7-0.9,0.7c-0.3,0-0.5-0.4-0.8-0.6c0.3-0.3,0.5-0.7,0.8-0.8
			C-1022.8-74.9-1022.5-74.5-1022-74.2z"/>
		<path class="st0" d="M-1119.5-66.7c-0.4,0.4-0.7,0.8-0.9,0.8c-0.3-0.1-0.6-0.5-0.8-0.7c0.2-0.2,0.5-0.6,0.7-0.7
			C-1120.3-67.4-1120-67-1119.5-66.7z"/>
		<path class="st0" d="M-1105.5-67.7c0.3,0.5,0.7,0.8,0.7,1c0,0.3-0.4,0.5-0.6,0.8c-0.3-0.3-0.7-0.5-0.8-0.8
			C-1106.3-66.9-1105.9-67.2-1105.5-67.7z"/>
		<path class="st0" d="M-1089.5-66.5c-0.5,0.3-0.8,0.6-1,0.6c-0.3,0-0.5-0.4-0.7-0.7c0.3-0.2,0.5-0.6,0.8-0.7
			C-1090.2-67.3-1090-66.9-1089.5-66.5z"/>
		<path class="st0" d="M-1075.5-65.6c-0.3-0.5-0.8-0.8-0.7-1c0.1-0.3,0.5-0.5,0.8-0.8c0.2,0.3,0.6,0.5,0.6,0.8
			S-1075.2-66.1-1075.5-65.6z"/>
		<path class="st0" d="M-1060.5-67.7c0.3,0.5,0.7,0.8,0.7,1c0,0.3-0.4,0.5-0.6,0.8c-0.3-0.3-0.7-0.5-0.8-0.8
			C-1061.3-66.9-1060.9-67.2-1060.5-67.7z"/>
		<path class="st0" d="M-1045.5-67.7c0.3,0.5,0.7,0.8,0.7,1c0,0.3-0.4,0.5-0.6,0.8c-0.3-0.3-0.7-0.5-0.8-0.8
			C-1046.3-66.9-1045.9-67.2-1045.5-67.7z"/>
		<path class="st0" d="M-1030.5-65.6c-0.4-0.5-0.8-0.8-0.7-1c0.1-0.3,0.5-0.5,0.7-0.8c0.2,0.2,0.6,0.5,0.6,0.7
			C-1029.8-66.4-1030.2-66.1-1030.5-65.6z"/>
		<path class="st0" d="M-1015.5-67.7c0.3,0.5,0.7,0.8,0.7,1c0,0.3-0.4,0.5-0.6,0.8c-0.3-0.3-0.7-0.5-0.8-0.8
			C-1016.3-66.9-1015.9-67.2-1015.5-67.7z"/>
		<path class="st0" d="M-1112-59.2c-0.4,0.4-0.7,0.7-1,0.7c-0.3,0-0.5-0.4-0.8-0.6c0.3-0.3,0.5-0.7,0.8-0.8
			C-1112.8-59.9-1112.5-59.5-1112-59.2z"/>
		<path class="st0" d="M-1097-59c-0.5,0.3-0.8,0.6-1,0.6c-0.3,0-0.5-0.4-0.7-0.7c0.3-0.2,0.5-0.6,0.8-0.7
			C-1097.7-59.8-1097.5-59.4-1097-59z"/>
		<path class="st0" d="M-1082-59.1c-0.5,0.3-0.8,0.7-1,0.6c-0.3,0-0.5-0.4-0.7-0.7c0.3-0.3,0.5-0.6,0.8-0.7
			C-1082.8-59.9-1082.5-59.4-1082-59.1z"/>
		<path class="st0" d="M-1067-59.1c-0.5,0.3-0.8,0.7-1,0.6c-0.3,0-0.5-0.4-0.8-0.7c0.3-0.3,0.5-0.6,0.8-0.7
			C-1067.8-59.9-1067.5-59.4-1067-59.1z"/>
		<path class="st0" d="M-1053-58.1c-0.4-0.5-0.8-0.8-0.7-1c0.1-0.3,0.5-0.5,0.7-0.8c0.2,0.2,0.6,0.5,0.6,0.7S-1052.7-58.6-1053-58.1
			z"/>
		<path class="st0" d="M-1038-58.1c-0.4-0.5-0.8-0.8-0.7-1c0.1-0.3,0.5-0.5,0.7-0.8c0.2,0.2,0.6,0.5,0.6,0.7S-1037.7-58.6-1038-58.1
			z"/>
		<path class="st0" d="M-1023-58.1c-0.4-0.5-0.8-0.8-0.7-1c0.1-0.3,0.5-0.5,0.7-0.8c0.2,0.2,0.6,0.5,0.6,0.7
			C-1022.3-58.9-1022.7-58.6-1023-58.1z"/>
		<path class="st0" d="M-1119.5-51.6c-0.4,0.3-0.8,0.8-1,0.7c-0.3-0.1-0.5-0.5-0.8-0.7c0.3-0.2,0.5-0.6,0.8-0.6
			C-1120.3-52.3-1120-52-1119.5-51.6z"/>
		<path class="st0" d="M-1105.5-52.7c0.3,0.5,0.7,0.8,0.7,1c0,0.3-0.4,0.5-0.6,0.8c-0.3-0.3-0.7-0.5-0.8-0.8
			C-1106.3-51.9-1105.9-52.2-1105.5-52.7z"/>
		<path class="st0" d="M-1089.5-51.6c-0.5,0.3-0.8,0.7-1,0.6c-0.3-0.1-0.5-0.5-0.8-0.8c0.3-0.2,0.5-0.6,0.8-0.6
			C-1090.2-52.3-1090-51.9-1089.5-51.6z"/>
		<path class="st0" d="M-1074.5-51.6c-0.5,0.3-0.8,0.7-1,0.6c-0.3,0-0.5-0.4-0.8-0.7c0.3-0.3,0.5-0.6,0.8-0.7
			C-1075.3-52.4-1075-51.9-1074.5-51.6z"/>
		<path class="st0" d="M-1060.5-52.7c0.3,0.5,0.7,0.8,0.7,1c0,0.3-0.4,0.5-0.6,0.8c-0.3-0.3-0.7-0.5-0.8-0.8
			C-1061.3-51.9-1060.9-52.2-1060.5-52.7z"/>
		<path class="st0" d="M-1045.4-50.6c-0.4-0.4-0.8-0.7-0.8-0.9c0.1-0.3,0.4-0.5,0.7-0.8c0.2,0.2,0.6,0.4,0.7,0.7
			S-1045.1-51.1-1045.4-50.6z"/>
		<path class="st0" d="M-1030.4-50.6c-0.4-0.4-0.8-0.7-0.8-0.9c0.1-0.3,0.4-0.5,0.7-0.8c0.2,0.2,0.6,0.4,0.7,0.7
			S-1030.1-51.1-1030.4-50.6z"/>
		<path class="st0" d="M-1015.5-52.7c0.3,0.5,0.7,0.8,0.7,1c0,0.3-0.4,0.5-0.6,0.8c-0.3-0.3-0.7-0.5-0.8-0.8
			C-1016.3-51.9-1015.9-52.2-1015.5-52.7z"/>
		<path class="st0" d="M-1112-44c-0.5,0.3-0.8,0.6-1,0.6c-0.3,0-0.5-0.4-0.7-0.7c0.3-0.2,0.5-0.6,0.8-0.7
			C-1112.8-44.8-1112.5-44.4-1112-44z"/>
		<path class="st0" d="M-1097.9-45.2c0.3,0.5,0.6,0.8,0.6,1c0,0.3-0.4,0.5-0.7,0.7c-0.3-0.3-0.6-0.5-0.7-0.8
			C-1098.8-44.4-1098.3-44.7-1097.9-45.2z"/>
		<path class="st0" d="M-1082-44.1c-0.5,0.3-0.8,0.7-1,0.6c-0.3,0-0.5-0.4-0.8-0.6c0.3-0.3,0.5-0.6,0.8-0.7
			C-1082.8-44.9-1082.5-44.4-1082-44.1z"/>
		<path class="st0" d="M-1068-45.2c0.3,0.5,0.7,0.8,0.7,1c0,0.3-0.4,0.5-0.6,0.8c-0.3-0.3-0.7-0.5-0.8-0.8
			C-1068.8-44.4-1068.4-44.7-1068-45.2z"/>
		<path class="st0" d="M-1052-44.1c-0.5,0.3-0.8,0.7-1,0.6c-0.3,0-0.5-0.4-0.7-0.7c0.3-0.2,0.5-0.6,0.8-0.7
			C-1052.7-44.8-1052.4-44.4-1052-44.1z"/>
		<path class="st0" d="M-1039-44.1c0.5-0.3,0.8-0.7,1-0.7c0.3,0.1,0.5,0.5,0.8,0.8c-0.3,0.2-0.5,0.6-0.8,0.6S-1038.6-43.8-1039-44.1
			z"/>
		<path class="st0" d="M-1022-44.1c-0.5,0.3-0.8,0.7-1,0.6c-0.3,0-0.5-0.4-0.8-0.7c0.3-0.3,0.5-0.6,0.8-0.7
			C-1022.8-44.9-1022.4-44.4-1022-44.1z"/>
		<path class="st0" d="M-1119.5-36.6c-0.5,0.3-0.8,0.7-1,0.6c-0.3,0-0.5-0.4-0.7-0.7c0.3-0.2,0.5-0.6,0.8-0.7
			C-1120.3-37.3-1120-36.9-1119.5-36.6z"/>
		<path class="st0" d="M-1104.5-36.6c-0.5,0.3-0.8,0.7-1,0.6c-0.3,0-0.5-0.4-0.7-0.7c0.3-0.2,0.5-0.6,0.8-0.7
			C-1105.3-37.3-1105-36.9-1104.5-36.6z"/>
		<path class="st0" d="M-1089.5-36.6c-0.5,0.3-0.8,0.7-1,0.6c-0.3-0.1-0.5-0.5-0.8-0.8c0.3-0.2,0.5-0.6,0.8-0.6
			C-1090.2-37.3-1090-36.9-1089.5-36.6z"/>
		<path class="st0" d="M-1075.5-35.6c-0.4-0.5-0.8-0.8-0.7-1c0.1-0.3,0.5-0.5,0.7-0.8c0.2,0.2,0.6,0.5,0.6,0.7
			S-1075.2-36.1-1075.5-35.6z"/>
		<path class="st0" d="M-1059.5-36.6c-0.5,0.3-0.8,0.7-1,0.6c-0.3-0.1-0.5-0.5-0.8-0.8c0.3-0.2,0.5-0.6,0.8-0.6
			C-1060.2-37.3-1060-36.9-1059.5-36.6z"/>
		<path class="st0" d="M-1045.5-35.6c-0.3-0.5-0.8-0.8-0.7-1c0.1-0.3,0.5-0.5,0.8-0.8c0.2,0.3,0.6,0.5,0.6,0.8
			S-1045.2-36.1-1045.5-35.6z"/>
		<path class="st0" d="M-1029.5-36.6c-0.5,0.3-0.8,0.7-1,0.6c-0.3,0-0.5-0.4-0.7-0.7c0.3-0.3,0.5-0.6,0.8-0.7
			C-1030.2-37.3-1029.9-36.9-1029.5-36.6z"/>
		<path class="st0" d="M-1014.5-36.7c-0.4,0.4-0.7,0.7-1,0.7c-0.3,0-0.5-0.4-0.8-0.6c0.3-0.3,0.5-0.7,0.8-0.8
			C-1015.3-37.4-1015-37-1014.5-36.7z"/>
		<path class="st0" d="M-1112-29c-0.5,0.3-0.8,0.6-1,0.6c-0.3,0-0.5-0.4-0.7-0.7c0.3-0.2,0.5-0.6,0.8-0.7
			C-1112.8-29.8-1112.5-29.4-1112-29z"/>
		<path class="st0" d="M-1097-29.1c-0.5,0.3-0.8,0.7-1,0.6c-0.3,0-0.5-0.4-0.8-0.6c0.3-0.3,0.5-0.6,0.8-0.7
			C-1097.8-29.9-1097.5-29.4-1097-29.1z"/>
		<path class="st0" d="M-1082-29.1c-0.4,0.3-0.7,0.7-1,0.7c-0.3,0-0.5-0.4-0.8-0.6c0.3-0.3,0.5-0.7,0.8-0.8
			C-1082.8-29.9-1082.5-29.5-1082-29.1z"/>
		<path class="st0" d="M-1067-29.1c-0.5,0.3-0.8,0.7-1,0.6c-0.3,0-0.5-0.4-0.7-0.7c0.3-0.3,0.5-0.6,0.8-0.7
			C-1067.8-29.8-1067.5-29.4-1067-29.1z"/>
		<path class="st0" d="M-1052-29.2c-0.4,0.4-0.7,0.8-0.9,0.8c-0.3-0.1-0.6-0.4-0.8-0.7c0.2-0.2,0.5-0.6,0.7-0.7
			C-1052.8-29.8-1052.5-29.5-1052-29.2z"/>
		<path class="st0" d="M-1038-28.1c-0.3-0.5-0.8-0.8-0.7-1c0.1-0.3,0.5-0.5,0.8-0.8c0.2,0.3,0.6,0.5,0.6,0.8S-1037.7-28.6-1038-28.1
			z"/>
		<path class="st0" d="M-1022-29.2c-0.4,0.4-0.7,0.7-0.9,0.7c-0.3,0-0.5-0.4-0.8-0.6c0.3-0.3,0.5-0.7,0.8-0.8
			C-1022.8-29.9-1022.5-29.5-1022-29.2z"/>
	</g>
	<g transform="translate(1542.482 184.24)">
		<path class="st0" d="M-1120.6-140.6c-0.3-0.5-0.7-0.8-0.7-1c0.1-0.3,0.5-0.5,0.8-0.7c0.2,0.3,0.6,0.5,0.6,0.8
			C-1119.9-141.3-1120.2-141.1-1120.6-140.6z"/>
		<path class="st0" d="M-1105.5-140.6c-0.4-0.5-0.8-0.8-0.7-1c0.1-0.3,0.5-0.5,0.7-0.8c0.2,0.2,0.6,0.5,0.6,0.7
			C-1104.8-141.4-1105.2-141.1-1105.5-140.6z"/>
		<path class="st0" d="M-1090.5-140.6c-0.4-0.5-0.8-0.8-0.7-1c0.1-0.3,0.5-0.5,0.7-0.8c0.2,0.2,0.6,0.5,0.6,0.7
			C-1089.8-141.4-1090.2-141.1-1090.5-140.6z"/>
		<path class="st0" d="M-1075.5-140.6c-0.4-0.5-0.8-0.8-0.7-1c0.1-0.3,0.5-0.5,0.7-0.8c0.2,0.2,0.6,0.5,0.6,0.7
			C-1074.8-141.4-1075.2-141.1-1075.5-140.6z"/>
		<path class="st0" d="M-1060.5-140.6c-0.4-0.5-0.8-0.8-0.7-1c0.1-0.3,0.5-0.5,0.7-0.8c0.2,0.2,0.6,0.5,0.6,0.7
			C-1059.8-141.4-1060.2-141.1-1060.5-140.6z"/>
		<path class="st0" d="M-1045.5-140.6c-0.4-0.5-0.8-0.8-0.7-1c0.1-0.3,0.5-0.5,0.7-0.8c0.2,0.2,0.6,0.5,0.6,0.7
			C-1044.8-141.4-1045.2-141.1-1045.5-140.6z"/>
		<path class="st0" d="M-1030.5-142.7c0.3,0.5,0.7,0.8,0.7,1c0,0.3-0.4,0.5-0.6,0.8c-0.3-0.3-0.7-0.5-0.8-0.8
			C-1031.3-141.9-1030.9-142.2-1030.5-142.7z"/>
		<path class="st0" d="M-1112-134.2c-0.4,0.3-0.7,0.7-1,0.7c-0.3,0-0.5-0.4-0.8-0.6c0.3-0.3,0.5-0.7,0.8-0.8
			C-1112.8-134.9-1112.5-134.5-1112-134.2z"/>
		<path class="st0" d="M-1098-135.2c0.3,0.5,0.7,0.8,0.7,1c0,0.3-0.4,0.5-0.6,0.8c-0.3-0.3-0.7-0.5-0.8-0.8
			C-1098.8-134.4-1098.4-134.7-1098-135.2z"/>
		<path class="st0" d="M-1082.9-135.2c0.3,0.5,0.6,0.8,0.6,1c0,0.3-0.4,0.5-0.7,0.7c-0.3-0.3-0.6-0.5-0.7-0.8
			C-1083.8-134.4-1083.3-134.7-1082.9-135.2z"/>
		<path class="st0" d="M-1068.1-133.1c-0.3-0.5-0.7-0.8-0.7-1c0.1-0.3,0.5-0.5,0.8-0.7c0.2,0.3,0.6,0.5,0.6,0.8
			C-1067.4-133.8-1067.7-133.6-1068.1-133.1z"/>
		<path class="st0" d="M-1052.9-133.1c-0.4-0.4-0.8-0.7-0.8-0.9c0.1-0.3,0.4-0.6,0.7-0.8c0.2,0.2,0.6,0.4,0.7,0.7
			C-1052.3-133.9-1052.6-133.6-1052.9-133.1z"/>
		<path class="st0" d="M-1038-133.1c-0.3-0.5-0.8-0.8-0.7-1c0.1-0.3,0.5-0.5,0.8-0.8c0.2,0.3,0.6,0.5,0.6,0.8
			C-1037.3-133.8-1037.7-133.6-1038-133.1z"/>
		<path class="st0" d="M-1022-134.1c-0.5,0.3-0.7,0.7-1,0.7c-0.3,0-0.5-0.4-0.8-0.6c0.3-0.3,0.5-0.6,0.8-0.7
			C-1022.8-134.9-1022.5-134.5-1022-134.1z"/>
		<path class="st0" d="M-1119.5-126.6c-0.5,0.3-0.8,0.7-1,0.6c-0.3,0-0.5-0.4-0.7-0.7c0.3-0.3,0.5-0.6,0.8-0.7
			C-1120.3-127.4-1120-127-1119.5-126.6z"/>
		<path class="st0" d="M-1104.5-126.6c-0.5,0.3-0.8,0.6-1,0.6c-0.3,0-0.5-0.4-0.7-0.7c0.3-0.2,0.5-0.6,0.8-0.7
			C-1105.2-127.4-1105-126.9-1104.5-126.6z"/>
		<path class="st0" d="M-1090.5-127.7c0.3,0.5,0.7,0.8,0.7,1c0,0.3-0.4,0.5-0.6,0.8c-0.3-0.3-0.7-0.5-0.8-0.8
			C-1091.3-126.9-1090.9-127.2-1090.5-127.7z"/>
		<path class="st0" d="M-1074.5-126.6c-0.5,0.3-0.8,0.7-1,0.7c-0.3,0-0.5-0.4-0.8-0.7c0.3-0.3,0.5-0.6,0.8-0.7
			C-1075.3-127.4-1075-127-1074.5-126.6z"/>
		<path class="st0" d="M-1060.5-125.6c-0.4-0.4-0.8-0.8-0.8-1c0.1-0.3,0.5-0.5,0.7-0.8c0.2,0.2,0.6,0.5,0.7,0.7
			S-1060.2-126.1-1060.5-125.6z"/>
		<path class="st0" d="M-1044.5-126.6c-0.5,0.3-0.8,0.6-1,0.6c-0.3,0-0.5-0.4-0.7-0.7c0.3-0.2,0.5-0.6,0.8-0.7
			C-1045.2-127.4-1044.9-126.9-1044.5-126.6z"/>
		<path class="st0" d="M-1029.5-126.6c-0.5,0.3-0.8,0.7-1,0.6c-0.3,0-0.5-0.4-0.7-0.7c0.3-0.3,0.5-0.6,0.8-0.7
			C-1030.2-127.4-1029.9-127-1029.5-126.6z"/>
		<path class="st0" d="M-1112-119.1c-0.5,0.3-0.8,0.6-1,0.6c-0.3,0-0.5-0.4-0.7-0.7c0.3-0.2,0.5-0.6,0.8-0.7
			C-1112.8-119.9-1112.5-119.4-1112-119.1z"/>
		<path class="st0" d="M-1099.1-119.2c0.5-0.3,0.8-0.7,1-0.7c0.3,0.1,0.5,0.5,0.8,0.8c-0.3,0.2-0.5,0.6-0.8,0.6
			C-1098.4-118.5-1098.6-118.8-1099.1-119.2z"/>
		<path class="st0" d="M-1083-118.1c-0.4-0.5-0.8-0.8-0.7-1c0.1-0.3,0.5-0.5,0.7-0.8c0.2,0.2,0.6,0.5,0.6,0.7
			S-1082.7-118.6-1083-118.1z"/>
		<path class="st0" d="M-1068-118.1c-0.4-0.5-0.8-0.8-0.7-1c0.1-0.3,0.5-0.5,0.7-0.8c0.2,0.2,0.6,0.5,0.6,0.7
			S-1067.7-118.6-1068-118.1z"/>
		<path class="st0" d="M-1053-118.1c-0.4-0.5-0.8-0.8-0.7-1c0.1-0.3,0.5-0.5,0.7-0.8c0.2,0.2,0.6,0.5,0.6,0.7
			S-1052.7-118.6-1053-118.1z"/>
		<path class="st0" d="M-1038-118.1c-0.4-0.5-0.8-0.8-0.7-1c0.1-0.3,0.5-0.5,0.7-0.8c0.2,0.2,0.6,0.5,0.6,0.7
			S-1037.7-118.6-1038-118.1z"/>
		<path class="st0" d="M-1023-118.1c-0.4-0.5-0.8-0.8-0.7-1c0.1-0.3,0.5-0.5,0.7-0.8c0.2,0.2,0.6,0.5,0.6,0.7
			C-1022.3-118.9-1022.7-118.6-1023-118.1z"/>
		<path class="st0" d="M-1120.5-110.6c-0.4-0.5-0.8-0.8-0.7-1c0.1-0.3,0.5-0.5,0.7-0.8c0.2,0.2,0.6,0.5,0.6,0.7
			S-1120.2-111.1-1120.5-110.6z"/>
		<path class="st0" d="M-1105.5-110.6c-0.4-0.5-0.8-0.8-0.7-1c0.1-0.3,0.5-0.5,0.7-0.8c0.2,0.2,0.6,0.5,0.6,0.7
			S-1105.2-111.1-1105.5-110.6z"/>
		<path class="st0" d="M-1090.5-110.6c-0.4-0.5-0.8-0.8-0.7-1c0.1-0.3,0.5-0.5,0.7-0.8c0.2,0.2,0.6,0.5,0.6,0.7
			C-1089.8-111.4-1090.2-111.1-1090.5-110.6z"/>
		<path class="st0" d="M-1074.5-111.7c-0.4,0.4-0.7,0.7-1,0.7c-0.3,0-0.5-0.4-0.8-0.6c0.3-0.3,0.5-0.7,0.8-0.8
			C-1075.3-112.4-1075-112-1074.5-111.7z"/>
		<path class="st0" d="M-1060.5-110.6c-0.4-0.5-0.8-0.8-0.7-1c0.1-0.3,0.5-0.5,0.7-0.8c0.2,0.2,0.6,0.5,0.6,0.7
			S-1060.2-111.1-1060.5-110.6z"/>
		<path class="st0" d="M-1045.5-110.6c-0.4-0.5-0.8-0.8-0.7-1c0.1-0.3,0.5-0.5,0.7-0.8c0.2,0.2,0.6,0.5,0.6,0.7
			C-1044.8-111.4-1045.2-111.1-1045.5-110.6z"/>
		<path class="st0" d="M-1030.5-110.6c-0.4-0.5-0.8-0.8-0.7-1c0.1-0.3,0.5-0.5,0.7-0.8c0.2,0.2,0.6,0.5,0.6,0.7
			C-1029.8-111.4-1030.2-111.1-1030.5-110.6z"/>
		<path class="st0" d="M-1112-104.1c-0.5,0.3-0.8,0.6-1,0.6c-0.3,0-0.5-0.4-0.7-0.7c0.3-0.2,0.5-0.6,0.8-0.7
			C-1112.8-104.9-1112.5-104.4-1112-104.1z"/>
		<path class="st0" d="M-1097.9-103.1c-0.4-0.4-0.8-0.7-0.8-0.9c0.1-0.3,0.4-0.5,0.7-0.8c0.2,0.2,0.6,0.4,0.7,0.7
			S-1097.6-103.6-1097.9-103.1z"/>
		<path class="st0" d="M-1082.9-103.1c-0.4-0.4-0.8-0.7-0.8-0.9c0.1-0.3,0.4-0.5,0.7-0.8c0.2,0.2,0.6,0.4,0.7,0.7
			C-1082.3-103.9-1082.6-103.6-1082.9-103.1z"/>
		<path class="st0" d="M-1067-104.1c-0.5,0.3-0.8,0.7-1,0.6c-0.3,0-0.5-0.4-0.8-0.6c0.3-0.3,0.5-0.6,0.8-0.7
			C-1067.8-104.9-1067.5-104.4-1067-104.1z"/>
		<path class="st0" d="M-1053-103.1c-0.4-0.5-0.8-0.8-0.7-1c0.1-0.3,0.5-0.5,0.7-0.8c0.2,0.2,0.6,0.5,0.6,0.7
			S-1052.7-103.6-1053-103.1z"/>
		<path class="st0" d="M-1038-105.2c0.3,0.5,0.7,0.8,0.7,1c0,0.3-0.4,0.5-0.6,0.8c-0.3-0.3-0.7-0.5-0.8-0.8
			C-1038.8-104.4-1038.4-104.7-1038-105.2z"/>
		<path class="st0" d="M-1022.9-105.2c0.3,0.5,0.6,0.8,0.6,1c0,0.3-0.4,0.5-0.7,0.7c-0.3-0.3-0.6-0.5-0.7-0.8
			C-1023.8-104.4-1023.3-104.7-1022.9-105.2z"/>
		<path class="st0" d="M-1120.5-97.7c0.3,0.5,0.7,0.8,0.7,1c0,0.3-0.4,0.5-0.6,0.8c-0.3-0.3-0.7-0.5-0.8-0.8
			C-1121.3-96.9-1120.9-97.2-1120.5-97.7z"/>
		<path class="st0" d="M-1105.5-95.6c-0.4-0.4-0.8-0.8-0.8-1c0.1-0.3,0.5-0.5,0.7-0.8c0.2,0.2,0.6,0.5,0.7,0.7
			S-1105.2-96.1-1105.5-95.6z"/>
		<path class="st0" d="M-1090.5-95.6c-0.3-0.5-0.8-0.8-0.7-1c0.1-0.3,0.5-0.5,0.8-0.8c0.2,0.3,0.6,0.5,0.6,0.8
			S-1090.2-96.1-1090.5-95.6z"/>
		<path class="st0" d="M-1075.6-95.6c-0.3-0.5-0.7-0.8-0.7-1c0.1-0.3,0.5-0.5,0.8-0.7c0.2,0.3,0.6,0.5,0.6,0.8
			C-1074.9-96.3-1075.2-96.1-1075.6-95.6z"/>
		<path class="st0" d="M-1059.5-96.6c-0.4,0.3-0.8,0.7-1,0.7c-0.3-0.1-0.5-0.5-0.8-0.8c0.3-0.2,0.5-0.6,0.8-0.6
			C-1060.2-97.3-1060-97-1059.5-96.6z"/>
		<path class="st0" d="M-1045.6-95.6c-0.3-0.5-0.7-0.8-0.7-1c0.1-0.3,0.5-0.5,0.8-0.7c0.2,0.3,0.6,0.5,0.6,0.8
			C-1044.8-96.3-1045.2-96.1-1045.6-95.6z"/>
		<path class="st0" d="M-1030.5-97.7c0.3,0.5,0.7,0.8,0.7,1c0,0.3-0.4,0.5-0.6,0.8c-0.3-0.3-0.7-0.5-0.8-0.8
			C-1031.3-96.9-1030.9-97.2-1030.5-97.7z"/>
		<path class="st0" d="M-1112-89.1c-0.5,0.3-0.7,0.7-1,0.7c-0.3,0-0.5-0.4-0.8-0.6c0.3-0.3,0.5-0.7,0.8-0.7
			C-1112.8-89.9-1112.5-89.5-1112-89.1z"/>
		<path class="st0" d="M-1097-89.1c-0.5,0.3-0.8,0.7-1,0.6c-0.3,0-0.5-0.4-0.8-0.7c0.3-0.3,0.5-0.6,0.8-0.7
			C-1097.8-89.9-1097.5-89.4-1097-89.1z"/>
		<path class="st0" d="M-1082.9-88.1c-0.4-0.4-0.8-0.7-0.8-0.9c0.1-0.3,0.4-0.6,0.7-0.8c0.2,0.2,0.6,0.4,0.7,0.7
			C-1082.3-88.9-1082.6-88.6-1082.9-88.1z"/>
		<path class="st0" d="M-1068-90.2c0.3,0.5,0.7,0.8,0.7,1s-0.4,0.5-0.6,0.8c-0.3-0.3-0.7-0.5-0.8-0.8
			C-1068.8-89.4-1068.4-89.7-1068-90.2z"/>
		<path class="st0" d="M-1052-89.2c-0.4,0.4-0.7,0.8-0.9,0.8c-0.3-0.1-0.6-0.4-0.8-0.7c0.2-0.2,0.5-0.6,0.7-0.7
			C-1052.8-89.9-1052.5-89.5-1052-89.2z"/>
		<path class="st0" d="M-1038-88.1c-0.4-0.5-0.8-0.8-0.7-1c0.1-0.3,0.5-0.5,0.7-0.8c0.2,0.2,0.6,0.5,0.6,0.7S-1037.7-88.6-1038-88.1
			z"/>
		<path class="st0" d="M-1023-88.1c-0.4-0.4-0.8-0.8-0.8-0.9c0.1-0.3,0.5-0.5,0.7-0.8c0.2,0.2,0.6,0.5,0.7,0.7
			C-1022.3-88.9-1022.6-88.6-1023-88.1z"/>
		<path class="st0" d="M-1120.4-80.6c-0.4-0.4-0.8-0.7-0.8-0.9c0.1-0.3,0.4-0.5,0.7-0.8c0.2,0.2,0.6,0.4,0.7,0.7
			C-1119.8-81.4-1120.2-81.1-1120.4-80.6z"/>
		<path class="st0" d="M-1104.6-81.7c-0.4,0.4-0.7,0.8-0.9,0.8c-0.3-0.1-0.6-0.4-0.9-0.6c0.3-0.3,0.5-0.7,0.8-0.7
			C-1105.3-82.4-1105-82-1104.6-81.7z"/>
		<path class="st0" d="M-1090.5-80.6c-0.4-0.5-0.8-0.8-0.7-1c0.1-0.3,0.5-0.5,0.7-0.8c0.2,0.2,0.6,0.5,0.6,0.7
			C-1089.8-81.4-1090.2-81.1-1090.5-80.6z"/>
		<path class="st0" d="M-1075.5-80.6c-0.4-0.5-0.8-0.8-0.7-1c0.1-0.3,0.5-0.5,0.7-0.8c0.2,0.2,0.6,0.5,0.6,0.7
			S-1075.2-81.1-1075.5-80.6z"/>
		<path class="st0" d="M-1060.5-80.6c-0.4-0.5-0.8-0.8-0.7-1c0.1-0.3,0.5-0.5,0.7-0.8c0.2,0.2,0.6,0.5,0.6,0.7
			S-1060.2-81.1-1060.5-80.6z"/>
		<path class="st0" d="M-1045.5-80.6c-0.4-0.5-0.8-0.8-0.7-1c0.1-0.3,0.5-0.5,0.7-0.8c0.2,0.2,0.6,0.5,0.6,0.7
			C-1044.8-81.4-1045.2-81.1-1045.5-80.6z"/>
		<path class="st0" d="M-1031.5-81.7c0.4-0.3,0.8-0.7,1-0.7c0.3,0.1,0.5,0.5,0.8,0.8c-0.3,0.2-0.5,0.6-0.8,0.6
			C-1030.8-81-1031.1-81.3-1031.5-81.7z"/>
		<path class="st0" d="M-1112-74c-0.5,0.3-0.8,0.6-1,0.6c-0.3,0-0.5-0.4-0.7-0.7c0.3-0.2,0.5-0.6,0.8-0.7
			C-1112.8-74.8-1112.5-74.4-1112-74z"/>
		<path class="st0" d="M-1098-73.1c-0.3-0.5-0.8-0.8-0.7-1c0.1-0.3,0.5-0.5,0.8-0.8c0.2,0.3,0.6,0.5,0.6,0.8S-1097.7-73.6-1098-73.1
			z"/>
		<path class="st0" d="M-1082-74.2c-0.4,0.3-0.7,0.7-1,0.7c-0.3,0-0.5-0.4-0.8-0.6c0.3-0.3,0.5-0.7,0.8-0.8
			C-1082.8-74.9-1082.5-74.5-1082-74.2z"/>
		<path class="st0" d="M-1068-75.2c0.3,0.5,0.7,0.8,0.7,1s-0.4,0.5-0.6,0.8c-0.3-0.3-0.7-0.5-0.8-0.8
			C-1068.8-74.4-1068.4-74.7-1068-75.2z"/>
		<path class="st0" d="M-1054-74.2c0.5-0.3,0.8-0.7,1-0.7c0.3,0.1,0.5,0.5,0.8,0.8c-0.3,0.2-0.5,0.6-0.8,0.6
			C-1053.3-73.5-1053.6-73.8-1054-74.2z"/>
		<path class="st0" d="M-1037-74.1c-0.5,0.3-0.7,0.7-1,0.7c-0.3,0-0.5-0.4-0.8-0.6c0.3-0.3,0.5-0.7,0.8-0.7
			C-1037.8-74.9-1037.5-74.5-1037-74.1z"/>
		<path class="st0" d="M-1022-74.2c-0.4,0.4-0.7,0.7-0.9,0.7c-0.3,0-0.5-0.4-0.8-0.6c0.3-0.3,0.5-0.7,0.8-0.8
			C-1022.8-74.9-1022.5-74.5-1022-74.2z"/>
		<path class="st0" d="M-1119.5-66.7c-0.4,0.4-0.7,0.8-0.9,0.8c-0.3-0.1-0.6-0.5-0.8-0.7c0.2-0.2,0.5-0.6,0.7-0.7
			C-1120.3-67.4-1120-67-1119.5-66.7z"/>
		<path class="st0" d="M-1105.5-67.7c0.3,0.5,0.7,0.8,0.7,1c0,0.3-0.4,0.5-0.6,0.8c-0.3-0.3-0.7-0.5-0.8-0.8
			C-1106.3-66.9-1105.9-67.2-1105.5-67.7z"/>
		<path class="st0" d="M-1089.5-66.5c-0.5,0.3-0.8,0.6-1,0.6c-0.3,0-0.5-0.4-0.7-0.7c0.3-0.2,0.5-0.6,0.8-0.7
			C-1090.2-67.3-1090-66.9-1089.5-66.5z"/>
		<path class="st0" d="M-1075.5-65.6c-0.3-0.5-0.8-0.8-0.7-1c0.1-0.3,0.5-0.5,0.8-0.8c0.2,0.3,0.6,0.5,0.6,0.8
			S-1075.2-66.1-1075.5-65.6z"/>
		<path class="st0" d="M-1060.5-67.7c0.3,0.5,0.7,0.8,0.7,1c0,0.3-0.4,0.5-0.6,0.8c-0.3-0.3-0.7-0.5-0.8-0.8
			C-1061.3-66.9-1060.9-67.2-1060.5-67.7z"/>
		<path class="st0" d="M-1045.5-67.7c0.3,0.5,0.7,0.8,0.7,1c0,0.3-0.4,0.5-0.6,0.8c-0.3-0.3-0.7-0.5-0.8-0.8
			C-1046.3-66.9-1045.9-67.2-1045.5-67.7z"/>
		<path class="st0" d="M-1030.5-65.6c-0.4-0.5-0.8-0.8-0.7-1c0.1-0.3,0.5-0.5,0.7-0.8c0.2,0.2,0.6,0.5,0.6,0.7
			C-1029.8-66.4-1030.2-66.1-1030.5-65.6z"/>
		<path class="st0" d="M-1112-59.2c-0.4,0.4-0.7,0.7-1,0.7c-0.3,0-0.5-0.4-0.8-0.6c0.3-0.3,0.5-0.7,0.8-0.8
			C-1112.8-59.9-1112.5-59.5-1112-59.2z"/>
		<path class="st0" d="M-1097-59c-0.5,0.3-0.8,0.6-1,0.6c-0.3,0-0.5-0.4-0.7-0.7c0.3-0.2,0.5-0.6,0.8-0.7
			C-1097.7-59.8-1097.5-59.4-1097-59z"/>
		<path class="st0" d="M-1082-59.1c-0.5,0.3-0.8,0.7-1,0.6c-0.3,0-0.5-0.4-0.7-0.7c0.3-0.3,0.5-0.6,0.8-0.7
			C-1082.8-59.9-1082.5-59.4-1082-59.1z"/>
		<path class="st0" d="M-1067-59.1c-0.5,0.3-0.8,0.7-1,0.6c-0.3,0-0.5-0.4-0.8-0.7c0.3-0.3,0.5-0.6,0.8-0.7
			C-1067.8-59.9-1067.5-59.4-1067-59.1z"/>
		<path class="st0" d="M-1053-58.1c-0.4-0.5-0.8-0.8-0.7-1c0.1-0.3,0.5-0.5,0.7-0.8c0.2,0.2,0.6,0.5,0.6,0.7S-1052.7-58.6-1053-58.1
			z"/>
		<path class="st0" d="M-1038-58.1c-0.4-0.5-0.8-0.8-0.7-1c0.1-0.3,0.5-0.5,0.7-0.8c0.2,0.2,0.6,0.5,0.6,0.7S-1037.7-58.6-1038-58.1
			z"/>
		<path class="st0" d="M-1023-58.1c-0.4-0.5-0.8-0.8-0.7-1c0.1-0.3,0.5-0.5,0.7-0.8c0.2,0.2,0.6,0.5,0.6,0.7
			C-1022.3-58.9-1022.7-58.6-1023-58.1z"/>
		<path class="st0" d="M-1119.5-51.6c-0.4,0.3-0.8,0.8-1,0.7c-0.3-0.1-0.5-0.5-0.8-0.7c0.3-0.2,0.5-0.6,0.8-0.6
			C-1120.3-52.3-1120-52-1119.5-51.6z"/>
		<path class="st0" d="M-1105.5-52.7c0.3,0.5,0.7,0.8,0.7,1c0,0.3-0.4,0.5-0.6,0.8c-0.3-0.3-0.7-0.5-0.8-0.8
			C-1106.3-51.9-1105.9-52.2-1105.5-52.7z"/>
		<path class="st0" d="M-1089.5-51.6c-0.5,0.3-0.8,0.7-1,0.6c-0.3-0.1-0.5-0.5-0.8-0.8c0.3-0.2,0.5-0.6,0.8-0.6
			C-1090.2-52.3-1090-51.9-1089.5-51.6z"/>
		<path class="st0" d="M-1074.5-51.6c-0.5,0.3-0.8,0.7-1,0.6c-0.3,0-0.5-0.4-0.8-0.7c0.3-0.3,0.5-0.6,0.8-0.7
			C-1075.3-52.4-1075-51.9-1074.5-51.6z"/>
		<path class="st0" d="M-1060.5-52.7c0.3,0.5,0.7,0.8,0.7,1c0,0.3-0.4,0.5-0.6,0.8c-0.3-0.3-0.7-0.5-0.8-0.8
			C-1061.3-51.9-1060.9-52.2-1060.5-52.7z"/>
		<path class="st0" d="M-1045.4-50.6c-0.4-0.4-0.8-0.7-0.8-0.9c0.1-0.3,0.4-0.5,0.7-0.8c0.2,0.2,0.6,0.4,0.7,0.7
			S-1045.1-51.1-1045.4-50.6z"/>
		<path class="st0" d="M-1030.4-50.6c-0.4-0.4-0.8-0.7-0.8-0.9c0.1-0.3,0.4-0.5,0.7-0.8c0.2,0.2,0.6,0.4,0.7,0.7
			S-1030.1-51.1-1030.4-50.6z"/>
		<path class="st0" d="M-1112-44c-0.5,0.3-0.8,0.6-1,0.6c-0.3,0-0.5-0.4-0.7-0.7c0.3-0.2,0.5-0.6,0.8-0.7
			C-1112.8-44.8-1112.5-44.4-1112-44z"/>
		<path class="st0" d="M-1097.9-45.2c0.3,0.5,0.6,0.8,0.6,1c0,0.3-0.4,0.5-0.7,0.7c-0.3-0.3-0.6-0.5-0.7-0.8
			C-1098.8-44.4-1098.3-44.7-1097.9-45.2z"/>
		<path class="st0" d="M-1082-44.1c-0.5,0.3-0.8,0.7-1,0.6c-0.3,0-0.5-0.4-0.8-0.6c0.3-0.3,0.5-0.6,0.8-0.7
			C-1082.8-44.9-1082.5-44.4-1082-44.1z"/>
		<path class="st0" d="M-1068-45.2c0.3,0.5,0.7,0.8,0.7,1c0,0.3-0.4,0.5-0.6,0.8c-0.3-0.3-0.7-0.5-0.8-0.8
			C-1068.8-44.4-1068.4-44.7-1068-45.2z"/>
		<path class="st0" d="M-1052-44.1c-0.5,0.3-0.8,0.7-1,0.6c-0.3,0-0.5-0.4-0.7-0.7c0.3-0.2,0.5-0.6,0.8-0.7
			C-1052.7-44.8-1052.4-44.4-1052-44.1z"/>
		<path class="st0" d="M-1039-44.1c0.5-0.3,0.8-0.7,1-0.7c0.3,0.1,0.5,0.5,0.8,0.8c-0.3,0.2-0.5,0.6-0.8,0.6S-1038.6-43.8-1039-44.1
			z"/>
		<path class="st0" d="M-1022-44.1c-0.5,0.3-0.8,0.7-1,0.6c-0.3,0-0.5-0.4-0.8-0.7c0.3-0.3,0.5-0.6,0.8-0.7
			C-1022.8-44.9-1022.4-44.4-1022-44.1z"/>
		<path class="st0" d="M-1119.5-36.6c-0.5,0.3-0.8,0.7-1,0.6c-0.3,0-0.5-0.4-0.7-0.7c0.3-0.2,0.5-0.6,0.8-0.7
			C-1120.3-37.3-1120-36.9-1119.5-36.6z"/>
		<path class="st0" d="M-1104.5-36.6c-0.5,0.3-0.8,0.7-1,0.6c-0.3,0-0.5-0.4-0.7-0.7c0.3-0.2,0.5-0.6,0.8-0.7
			C-1105.3-37.3-1105-36.9-1104.5-36.6z"/>
		<path class="st0" d="M-1089.5-36.6c-0.5,0.3-0.8,0.7-1,0.6c-0.3-0.1-0.5-0.5-0.8-0.8c0.3-0.2,0.5-0.6,0.8-0.6
			C-1090.2-37.3-1090-36.9-1089.5-36.6z"/>
		<path class="st0" d="M-1075.5-35.6c-0.4-0.5-0.8-0.8-0.7-1c0.1-0.3,0.5-0.5,0.7-0.8c0.2,0.2,0.6,0.5,0.6,0.7
			S-1075.2-36.1-1075.5-35.6z"/>
		<path class="st0" d="M-1059.5-36.6c-0.5,0.3-0.8,0.7-1,0.6c-0.3-0.1-0.5-0.5-0.8-0.8c0.3-0.2,0.5-0.6,0.8-0.6
			C-1060.2-37.3-1060-36.9-1059.5-36.6z"/>
		<path class="st0" d="M-1045.5-35.6c-0.3-0.5-0.8-0.8-0.7-1c0.1-0.3,0.5-0.5,0.8-0.8c0.2,0.3,0.6,0.5,0.6,0.8
			S-1045.2-36.1-1045.5-35.6z"/>
		<path class="st0" d="M-1029.5-36.6c-0.5,0.3-0.8,0.7-1,0.6c-0.3,0-0.5-0.4-0.7-0.7c0.3-0.3,0.5-0.6,0.8-0.7
			C-1030.2-37.3-1029.9-36.9-1029.5-36.6z"/>
		<path class="st0" d="M-1112-29c-0.5,0.3-0.8,0.6-1,0.6c-0.3,0-0.5-0.4-0.7-0.7c0.3-0.2,0.5-0.6,0.8-0.7
			C-1112.8-29.8-1112.5-29.4-1112-29z"/>
		<path class="st0" d="M-1097-29.1c-0.5,0.3-0.8,0.7-1,0.6c-0.3,0-0.5-0.4-0.8-0.6c0.3-0.3,0.5-0.6,0.8-0.7
			C-1097.8-29.9-1097.5-29.4-1097-29.1z"/>
		<path class="st0" d="M-1082-29.1c-0.4,0.3-0.7,0.7-1,0.7c-0.3,0-0.5-0.4-0.8-0.6c0.3-0.3,0.5-0.7,0.8-0.8
			C-1082.8-29.9-1082.5-29.5-1082-29.1z"/>
		<path class="st0" d="M-1067-29.1c-0.5,0.3-0.8,0.7-1,0.6c-0.3,0-0.5-0.4-0.7-0.7c0.3-0.3,0.5-0.6,0.8-0.7
			C-1067.8-29.8-1067.5-29.4-1067-29.1z"/>
		<path class="st0" d="M-1052-29.2c-0.4,0.4-0.7,0.8-0.9,0.8c-0.3-0.1-0.6-0.4-0.8-0.7c0.2-0.2,0.5-0.6,0.7-0.7
			C-1052.8-29.8-1052.5-29.5-1052-29.2z"/>
		<path class="st0" d="M-1038-28.1c-0.3-0.5-0.8-0.8-0.7-1c0.1-0.3,0.5-0.5,0.8-0.8c0.2,0.3,0.6,0.5,0.6,0.8S-1037.7-28.6-1038-28.1
			z"/>
		<path class="st0" d="M-1022-29.2c-0.4,0.4-0.7,0.7-0.9,0.7c-0.3,0-0.5-0.4-0.8-0.6c0.3-0.3,0.5-0.7,0.8-0.8
			C-1022.8-29.9-1022.5-29.5-1022-29.2z"/>
	</g>
	<path class="st1" d="M64.6,331.1c0,0-4.3,7.8-0.9,9.6c0,0,0.2-4.9,1.9-5.5c0,0,0.8,2.6,0,3.7c0,0,1.4,0.1,2.1-6.3L64.6,331.1z"/>
	<path class="st2" d="M506.8,239.5c-0.5,6.4-1,12.9-1.8,19.4c-5.6,49.1-20.3,98.2-55.8,136.2c-4.4,4.7-9.2,9.4-15,12.6
		c-15.3,8.5-38.1,4.1-55.3,4.1H219.5c-19.8,0-48.2,5.7-64.5-6.1c-12.2-8.8-23.3-18.9-33.2-30.1c-4.5-5.1-8.7-10.4-12.6-16
		C89,331,77.1,297.9,71.7,262.5c-5.8-37.8-4.6-76,11.2-111.7c10.7-24.3,27.8-52.7,54.6-64.2c15.4-6.6,33.1-8.4,49.9-8.6
		c21.7-0.3,43.9-1.4,62.5-12.6c21.1-12.6,36.6-31.8,57.4-44.9c21-13.2,45.5-21.2,71.1-17.6c35.6,5,63.7,30.9,83,59
		c29.6,43.1,44.2,94.1,45.9,145.3C507.8,218,507.6,228.8,506.8,239.5z"/>
	<g transform="translate(992.034 5813.349)">
		<g transform="translate(169.119 104.524)">
			<path class="st3" d="M-806.9-5596.8h-78.1c0,0,3.2,49.8-12.2,49.8h102.6C-810.2-5547-806.9-5596.8-806.9-5596.8z"/>
			<path class="st4" d="M-886-5566.9l78.8-16c-0.1-7.9,0.2-14,0.2-14h-78.1C-885.1-5596.8-884.1-5580.7-886-5566.9z"/>
			<path class="st3" d="M-988.9-5787.6h285.8c7.7,0,13.9,6.2,13.9,13.9v178c0,7.7-6.2,13.9-13.9,13.9h-285.8
				c-7.7,0-13.9-6.2-13.9-13.9v-178C-1002.8-5781.4-996.6-5787.6-988.9-5787.6z"/>
			<path class="st5" d="M-987.9-5780.3h283.7c3.4,0,6.2,2.8,6.2,6.2v178.9c0,3.4-2.8,6.2-6.2,6.2h-283.7c-3.4,0-6.2-2.8-6.2-6.2
				v-178.9C-994-5777.5-991.3-5780.3-987.9-5780.3z"/>
			<line class="st6" x1="-994" y1="-5756.9" x2="-698" y2="-5756.9"/>
			<path class="st7" d="M-733.6-5763.7h-203.9c-2.8,0-5.1-2.3-5.1-5.1l0,0c0-2.8,2.3-5.1,5.1-5.1c0,0,0,0,0,0h203.9
				c2.8,0,5.1,2.3,5.1,5.1l0,0l0,0C-728.5-5766-730.8-5763.7-733.6-5763.7z"/>
			<g transform="translate(19.386 17.718)">
				<path class="st8" d="M-998.9-5786.2c0,1.5-1.2,2.7-2.7,2.7c-1.5,0-2.7-1.2-2.7-2.7c0-1.5,1.2-2.7,2.7-2.7c0,0,0,0,0,0
					C-1000.1-5788.9-998.9-5787.7-998.9-5786.2z"/>
				<path class="st8" d="M-986.3-5786.2c0,1.5-1.2,2.7-2.7,2.7s-2.7-1.2-2.7-2.7c0-1.5,1.2-2.7,2.7-2.7c0,0,0,0,0,0
					C-987.5-5788.9-986.3-5787.7-986.3-5786.2z"/>
				<path class="st8" d="M-973.7-5786.2c0,1.5-1.2,2.7-2.7,2.7s-2.7-1.2-2.7-2.7c0-1.5,1.2-2.7,2.7-2.7c0,0,0,0,0,0
					C-974.9-5788.9-973.7-5787.7-973.7-5786.2C-973.7-5786.2-973.7-5786.2-973.7-5786.2z"/>
			</g>
			<rect x="-911.3" y="-5548.4" class="st3" width="130.5" height="7.3"/>
			<g transform="translate(319.51 13.744)">
				<path class="st7" d="M-1024.6-5787.5c0,0.6-0.5,1.1-1.1,1.1c-0.6,0-1.1-0.5-1.1-1.1s0.5-1.1,1.1-1.1c0,0,0,0,0,0
					C-1025.1-5788.6-1024.6-5788.1-1024.6-5787.5z"/>
				<path class="st7" d="M-1024.6-5782.5c0,0.6-0.5,1.1-1.1,1.1c-0.6,0-1.1-0.5-1.1-1.1c0-0.6,0.5-1.1,1.1-1.1c0,0,0,0,0,0
					C-1025.1-5783.6-1024.6-5783.1-1024.6-5782.5z"/>
				<path class="st7" d="M-1024.6-5777.4c0,0.6-0.5,1.1-1.1,1.1c-0.6,0-1.1-0.5-1.1-1.1s0.5-1.1,1.1-1.1c0,0,0,0,0,0
					C-1025.1-5778.5-1024.6-5778-1024.6-5777.4z"/>
			</g>
			<line class="st9" x1="-798.3" y1="-5548" x2="-865.1" y2="-5548"/>
			<line class="st9" x1="-872.6" y1="-5548" x2="-894.4" y2="-5548"/>
		</g>
		<path class="st1" d="M-626-5411.9c0.2-0.2,2.6-2,2.6-2h2.7l2,0.5l3.5,0.2l1.7,2.2v0.4l-7.3,0.3c0,0,0.2-1.7-2.2-1.8l-2.7,1.5
			L-626-5411.9z"/>
		<path class="st10" d="M-636-5683.1l-6.5,0.1c0,0-3.4-4.8-3.6-4.9s-11-5.1-11-5.1s-11.9-3.2-12.1-3.3s-1.8-1.2-1.8-1.2
			s8.4-1.1,14.3-0.1c0,0,11.8,3.9,12,4c0.2,0.1,4.8,2.4,5.2,2.7c0.4,0.3,3.7,5,3.8,5.1C-635.7-5684.9-635.8-5684-636-5683.1z"/>
		
			<linearGradient id="SVGID_1_" gradientUnits="userSpaceOnUse" x1="-1078.9731" y1="-5352.1016" x2="-1078.0481" y2="-5352.1016" gradientTransform="matrix(164.1348 0 0 -238.5015 176479.125 -1282153.5)">
			<stop  offset="0" style="stop-color:#1A164A"/>
			<stop  offset="1" style="stop-color:#244C7A"/>
		</linearGradient>
		<path class="st11" d="M-617.9-5683.1c0,0,9.4-16.1,20.2-16.8l0.5-3.9c0.3-2.3-1.3-5.3-2.5-7.1c-2.1-2.7-3.9-5.7-5.5-8.7
			c-2.7-5.7-4.3-11.8-4.6-18.1c-0.3-6.7,0.5-13.5,3.9-19.4c5.7-9.8,14.9-17.2,25.8-20.5c12.3-3.8,26.8-2.9,37.5,4.9
			c0.5,0.3,0.9,0.7,1.3,1c5.3,4.3,9,10.2,10.5,16.8c0,0,3.6,12.3-0.4,33.1c0,0-3.3,17.4-6.6,25.1c0,0,8.1,5.2,8.5,5.6
			c5.3,3.9,10.3,8.2,14.8,12.9c7.1,7.3,13.5,15.3,19.1,23.8c2.7,4.1,5.3,8.3,7.8,12.6c3.6,6.5,13.4,22.3,17.6,36.4
			c0,0,7.3,15.9,1.7,28.9c0,0-3.2,9.9-18.2,13.6c-5.6,1.3-11.3,2-17,2.2c0,0-5.6,0.3-7.1,1.5c0,0,3.3-15.1-3.1-26.7
			c0,0,9.4-9.9,17.2-10.9c0,0-19-16.9-23.7-22.2v-53.6c0,0,0-10-10.6-10.5L-617.9-5683.1z"/>
		<path class="st12" d="M-576.2-5768c0,0,28.9,0.3,37.7,26.5C-538.5-5741.5-539.8-5770.6-576.2-5768z"/>
		<path class="st13" d="M-579.5-5683.1h5l7-9c4.1-5.2,8.6-10.1,13.5-14.5c5.3-4.8,8.8-11.2,10-18.2c2-11,0-23.4-7.8-31.7
			c-3.7-3.8-8.2-6.7-13.3-8.3c-2.4-0.8-4.9-1.3-7.4-1.5c-1.5-0.2-3.1-0.3-4.7-0.3c-1.3,0-3.4-0.3-4.7,0.2l-7.1,2.7l-11.7,12.9
			l-1.8,13.4l1.2,12.7l7.3,15.1l5.1,7.8c3.1,3.8,5.5,8.2,7,12.8L-579.5-5683.1z"/>
		<path class="st13" d="M-581.7-5766.4c0,0-23.4,2.4-25.8,26.7c0,0-0.9,17,18.8,37.8C-588.8-5702-619.6-5751.2-581.7-5766.4z"/>
		<path class="st12" d="M-526.6-5688.8c-0.2-0.1-0.5-0.1-0.7-0.1c-0.7-0.1-1.3-0.2-2-0.2c-2.2-0.2-4.5-0.1-6.7,0.1
			c-2.6,0.2-5.1,0.9-7.5,1.9c-1.7,0.8-3.2,1.9-4.8,2.7c-1,0.5-2.3,1.3-3.4,1c-0.4-0.1-0.8-0.4-1-0.8c-0.2-0.5-0.2-1.1,0.2-1.5
			c0.8-0.9,1.8-1.5,2.9-1.7c3-0.9,5.8-2.3,8.3-4.2c1.6-1.2,3.3-2.8,3.7-4.9L-526.6-5688.8z"/>
		<path class="st12" d="M-594.9-5705.9c0,0,4.6,8.9,1.1,13.8C-593.8-5692-594.4-5703.6-594.9-5705.9z"/>
		<path class="st14" d="M-550.3-5737.1c0,0-4.2,2.4-16.4,1.4c0.2,0.3,0.4,0.5,0.5,0.8c0.5,0.7,1.1,1.3,1.8,1.8
			c4.3,3.2,11.6,3.1,13.7-2.7C-550.6-5735.9-550.4-5737-550.3-5737.1z"/>
		<path class="st14" d="M-576.7-5737.1c-5.7-0.2-11.3-2-15.9-5.3c0,0-1,6.5,6.9,7.8C-585.8-5734.6-579.3-5733.7-576.7-5737.1z"/>
		<path class="st12" d="M-512.5-5586.9c0,0,9.5,2.7,9.8,15.3c0,0,0.4,9-1.4,11.1c0,0-5.4,0.4-6.4,1.4c0,0,3.5-11.9-3.3-26.6
			L-512.5-5586.9z"/>
		<path class="st12" d="M-632.7-5683.1c0,0-6.3-18.8-38.4-14.4c0,0,25.1-3,33.2,14.5L-632.7-5683.1z"/>
		<path class="st15" d="M-671-5697.5c-0.4,0.1-0.8,0.3-1.1,0.5c-0.9,0.4-1.9,0.9-2.8,1.5c-2.8,1.5-5.3,3.6-7.3,6.2
			c-1.7,2.6-2.9,5.4-3.5,8.4c-0.7,2.5-1.3,5.1-1.6,7.7c-0.1,1.3-0.2,2.6-0.1,3.9c0.1,1.1,0,2.4,0.9,3.2c0.4,0.3,1,0.4,1.5,0.3
			c1.4-0.4,1.7-1.9,2-3.1c0.7-3.3,1.4-6.5,2-9.8c0-0.5,0.2-1.1,0.5-1.5c0.5-0.7,0.7-0.1,0.6,0.5c-0.2,2.9-0.8,5.8-1,8.8
			c-0.3,2.7-0.4,5.4-0.3,8.1c0,0,0.2,4.9,3.8,4.9c0,0,1.1-16.1,2-18.8c0,0,1.3-6,4-3.6c-0.7,6.4-1.9,12.9-1.8,19.3
			c0,1.6,0.1,3.2,0.4,4.7c0.2,1,0.6,2.6,1.6,3c0,0,2.1,1,2.6-4.1c0.5-5.2,1.1-10.5,2-15.7c0.3-1.5,0.7-3,1.1-4.5
			c0.1-0.5,0.3-0.9,0.6-1.3c1.6-1.8,3,0.8,3.2,2.2c0.4,4.2-1.1,8.2-2.3,12.1c-0.3,1.1-0.7,2.2-1,3.3c-0.4,1-0.8,2.1-1,3.2
			c-0.2,1.5,0,3.5,1.5,4.4c1.2,0.7,2.5-1.2,2.9-1.9c1.5-2.8,2.1-6.3,3-9.3c1.6-5.3,2.9-10.8,5.3-15.8c0.7-1.4,1.7-3.6,3.6-3.6
			c1.2,0.1,2.2,0.8,2.6,1.9c0.7,1.3,1.2,2.6,1.9,3.8c0.7,1.2,1.5,2.3,2.4,3.4c1.7,2.1,3.9,3.8,6.5,4.7c0.6,0.2,1.2,0.2,1.9,0
			c1.5-0.5,1.9-2.6,1.2-3.9c-0.7-1.3-2.1-2-3.1-3.1c-2-2.2-3.9-4.9-4.5-7.9c-0.6-2.9-3.2-5.2-5.6-6.8c-4.4-2.9-9.6-4.3-14.8-4.9
			C-664.6-5697.6-667.8-5697.7-671-5697.5z"/>
		<path class="st15" d="M-520.1-5590.9c0,0,6,0.3,9.1,12.1c1.7,6.5,2.8,14,0.2,20.5c-2.4,5.9-7.4,10.4-13.5,12
			c-2.8,0.6-5.7,0.9-8.7,1c-1.5,0.1-3,0.1-4.5,0c-1.2,0.1-2.5,0-3.7-0.2c-1.1-0.3-2.5-1.4-1.9-2.7c0.3-0.6,0.9-1,1.5-1.2
			c0.6-0.2,1.3-0.3,2-0.3c3.6-0.1,7.2-0.4,10.8-0.4c0.3,0,0.5,0,0.8-0.2c0.2-0.2,0.3-0.5,0.2-0.7c-0.6-0.8-2.6-0.4-3.4-0.3
			c-3.3,0.3-6.7,0.3-10.1-0.1c-2.8-0.3-5.8-0.9-8.1-2.6c0,0-2.5-2.7,0.6-2.7c6,0.5,12,0.7,17.9,0.6c1.5,0,4.5-0.5,4.5-2.5
			c0-1-0.8-1.2-1.6-1.2c-7.9,0.1-16.6,0.3-24.1-2.5c0,0-4.1-2.7,1-3.1c0,0,19,0.4,21.1-0.1c0,0,3.1,0,3.3-1.8
			c0.4-2.8-4.7-2.7-6.4-2.7c-4.3,0-8.6,0.4-12.8,1.4c0,0-5.2,1.1-6.6-1.9c-0.4-0.8,0.2-1.5,0.9-1.9c1.4-0.7,2.9-1.1,4.4-1.2
			c2.5-0.3,5-0.7,7.5-1c3.3-0.5,6.6-1,10-1.4c0,0,8.2-1.1,10-3.8c0,0,1.2-1.9-0.5-2.4L-520.1-5590.9z"/>
		<path class="st1" d="M-521.6-5446.9v-4.2l4.6-5c0,0,0-1.5-0.7-1.5c-0.7,0-5.6-0.1-5.6,0s-3.3,2.9-3.3,2.9l-0.7,3.3l1.2,7l3.6-1.3
			L-521.6-5446.9z"/>
		<path class="st16" d="M-510.7-5420.6l-10.2-27.4l-6.1,2.6l5.7,24.7l7.9,5.7l3.9-4.4L-510.7-5420.6z"/>
		<path class="st1" d="M-491-5444.5c0.1-0.2,1.9-3.1,1.9-3.1l0.4-0.5l6.7-0.6l-0.8-2.5c0,0-3.4-2.3-3.9-2.3
			c-1.8,0.1-3.7,0.3-5.5,0.7c-0.1,0.2-1.2,1.9-1.2,1.9l-2.6,5.1l1.9,2.3L-491-5444.5z"/>
		<path class="st16" d="M-559.2-5424.5v14.6c0,0,24.1,2.1,37.5,1l11-0.3c0,0,6.7-0.4,9.9-9.3l10.6-26.3c0,0-0.6-1.3-7.1-1.8
			l-14.9,27.6c0,0-11.8-4.9-24.6-4.3c0,0-7.5-6.1-13.4-6C-550.1-5429.3-553.5-5429.8-559.2-5424.5z"/>
		<path class="st17" d="M-494.2-5450.8c0,0,2.6-2.5,7.2-1.1c0,0,4.8,1.5,3.3,3.3l8.2-0.7c0,0,1.5-1-2.7-2.2l-12.7-5.4
			c-0.4-0.3-0.9-0.3-1.2,0L-494.2-5450.8z"/>
		<path class="st18" d="M-518.1-5455.1l5.1-5.1c0,0,0.7-1.4-1.1-1.4l-16.1,5.9l2.6,6c0,0,0.6-4,5.7-6.1
			C-521.8-5455.9-518.9-5457-518.1-5455.1z"/>
		<path class="st19" d="M-621.9-5415.9l25.8-1.6c0,0-6.4-17.6-6.6-17.7c-0.5-0.3-1-0.6-1.4-1c0,0,0,10.8-2.1,12.6l-16.9,3.6
			L-621.9-5415.9z"/>
		<path class="st1" d="M-599.1-5444.1c0,0-4.5,1-4.7,6.6c0,0-4.6-0.3-5-0.4c-0.4-0.1-10.8-9.8-10.8-9.8v-8.9l2-1.4
			c0,0,8.8,0.3,10.3,1c1.5,0.7,9.9,5.1,10.1,5.8c0.1,1.3,0.1,2.6,0,3.9L-599.1-5444.1z"/>
		<path class="st20" d="M-615.7-5414.6l1.7,4.1l4.2,0v1.5l21.2-0.7c0,0,2.6-0.2,2.3-2.5l-1.5-10.6l-3.4-12.8l-1.9-5.4l-1.7-2.3
			c0,0-3.6-2.5-7.6,1.5c0,0-2.6,3.1-1.1,10.6l4.9,13.6L-615.7-5414.6z"/>
		<path class="st19" d="M-586.3-5412.2l27.8,2.5l-0.6-14.7l-5.3-0.3l-20.9-16.1l-9.1-5l-1.7,2c0.2-0.3,2.4,2.5,2.5,2.7
			c1.7,2.8,2,6.1,2.6,9.2c0.9,5.5,2.8,10.7,4.2,16.1C-586.6-5414.7-586.4-5413.5-586.3-5412.2z"/>
		<path class="st21" d="M-601-5443.2c0.1,0,0.1,0,0.2,0c1.9-0.5,3.4-1.2,5.3-0.4c4.3,1.8,4.2,7.9,5.6,11.7
			c3.2,8.6,14.7,10.7,22.6,8.7c0.2,0,0.3-0.1,0.5-0.1c0,0,12.4-2.7,14.8-12.5c0.9-4.1-0.3-8.3-3.3-11.2c-3.6-3.5-9-3.7-13.8-3.3
			c-2,0.2-3.9,0.5-5.8,1c-1.7,0.4-3.7,1.5-5.6,1.1c-1.1-0.2-2-1-2.5-2c-0.6-1.3,0.1-2.7,0.2-4.1c0.2-1.5-0.1-3-0.8-4.3
			c-1.1-1.8-3.3-2.1-5.2-2c-1.7,0.2-3.4,0.6-5.1,1.1c-1.5,0.4-3,0.9-4.6,0.5c-3.2-0.9-3.4-4.4-5.7-6.2c-2.6-2.1-6.3-1.2-9.2-0.1
			c0,0-7.3,2.6-7.1,9.8c0,0,3.7-0.8,6.1,1.7c0,0,2.9,3,3.7,2.8c0,0,5.2,1.8,5.8,1.4c0,0,0.7,1.4-1.3,1.8c-0.4,0.1,0.1,2.5,0.2,2.7
			C-605.1-5443.3-602.8-5442.8-601-5443.2z"/>
		<path class="st21" d="M-619.1-5455.8c0,0,2.2,2.3,2.5,7.2c0,0,0.4,5.2,5.7,5.3h3.4c0,0,1.6,3.4,4,4.6l-1.1,4.5
			c-0.3,1-5.6-1.2-6.3-1.5c-2.9-1.1-5.6-2.7-8.1-4.6c-2.8-2.3-5.3-6.1-4.7-9.9c0.2-1,0.5-1.9,1-2.8c0.4-0.6,1.6-2.6,2.3-2.7
			L-619.1-5455.8z"/>
		<path class="st22" d="M-613.6-5446.4c1-0.1,2-0.1,3.1,0C-610.6-5446.4-612-5443.6-613.6-5446.4z"/>
		<circle class="st22" cx="-607.2" cy="-5452.3" r="3.5"/>
		<circle class="st23" cx="-607.2" cy="-5452.3" r="2"/>
		<path class="st23" d="M-617.7-5459.1c4.1-0.1,7.7,2.4,9.1,6.3l2.1-0.5C-606.5-5453.3-611.5-5461.7-617.7-5459.1z"/>
		<rect x="-625.6" y="-5410.6" class="st24" width="15.8" height="1.5"/>
		<path class="st25" d="M-625.6-5409.1h-28.5l-0.3-1.5h28.8L-625.6-5409.1z"/>
		<path class="st26" d="M-625.6-5410.6l-5.3-17.7c-0.3-1-1.2-1.6-2.2-1.6H-659c-0.7,0-1.2,0.5-1.2,1.2c0,0.1,0,0.2,0.1,0.4l5.8,17.7
			H-625.6z"/>
		<path class="st1" d="M-622-5416.3c-0.2,0-3.1,0.2-3.1,0.2l-0.9,0.5h-1c-0.4-0.9-0.7-1.8-0.9-2.8c0.1,0,2,0.1,2,0.1
			s0.6,0.2,0.7,0.2c0.1,0,1.1-0.3,1.1-0.3h1.6L-622-5416.3z"/>
		<path class="st1" d="M-906.4-5663l-0.1,9.6l-4.1,3.9l-1.7,0.7l-1.1,5.4c0,0-5.5-1-5.9-1.1c-1.1-0.7-2.2-1.6-3.2-2.5l2.3-7.4l3-8.2
			c0.8-0.7,1.8-1.3,2.7-1.8C-913.8-5664.5-906.4-5663-906.4-5663z"/>
		<path class="st27" d="M-956-5530.6c0,0.1-0.6,4.3-0.6,4.3c0.5,0.3,1,0.5,1.6,0.6h2.5v-4L-956-5530.6z"/>
		<path class="st27" d="M-872.3-5625.8c0,0,1.4,2.5-2.8,5.3l-4.7,3.4l-2-1.7l0.8-2.3l3.2-3.3L-872.3-5625.8z"/>
		<path class="st27" d="M-984.6-5554.7l4.5-0.2l-2.7-3.9l-3.3,0.5l0.7,2.7L-984.6-5554.7z"/>
		<path class="st28" d="M-957.9-5530.9l6.7,2.8c0,0,30.5-26.4,35.6-69.5l-30.2-11.2c0,0-4,25.6-38.2,48l2.7,8.4
			c0,0,27.4-9,45.8-36.4C-935.5-5588.8-931.9-5559.8-957.9-5530.9z"/>
		<path class="st29" d="M-890.6-5665.6l-8.6,11.4c0,0-6.5,9.2-5.8,20.1l4,15.2c0,0,0.9,2.8,1.2,2.7c0.3-0.1,2.4-1.1,2.4-1.1
			s15.4,0.9,25.9-8c0,0,10.7-9,13.1-14.8c-6.9-2.8-12.1-8.8-13.8-16C-872.1-5656.2-880.1-5653.6-890.6-5665.6z"/>
		<path class="st30" d="M-909.5-5625.1l-4.8,28l-31.5-11.6l10.8-33.2c0,0,1.6-9.1,12.5-5.7l9.5,2.9c0,0,5.9,2.2,10.7,13l6.5,12.1
			c1.2,2.6,4.3,3.7,6.8,2.5c0.2-0.1,0.4-0.2,0.6-0.3l7.2-3.3l2.1,3.9c0.4,0.7-5.8,4.9-6.3,5.2c-3.2,2-7.6,4-11.4,2.4
			c-2.8-1.2-4.5-4.1-6.1-6.5c-1.1-1.5-2.1-3.1-3.2-4.6C-906.8-5621.3-909.6-5624.3-909.5-5625.1z"/>
		<path class="st21" d="M-920.8-5654c0.5,0.4,2.6,2,2.6,2l0.9-7.2c0,0,1.1-2.2,2.3,0l-1,8.8l6.3,2.8c1.1,0.4,2.3-0.2,2.7-1.3
			c0.1-0.2,0.1-0.4,0.1-0.6l0.4-5h-2.2c-0.8,1.1-2.1,1.7-3.5,1.6c0,0-1.5,0.3-0.9-3.7l0.7-6.1c0,0,5.3,2,7.4-0.5
			c0,0,0.9-2.7-1.8-2.3c0,0-5.2-0.1-7.3-1.4c0,0-4.3-1.4-5.1,3.7L-920.8-5654z"/>
		<circle class="st22" cx="-886.3" cy="-5637.7" r="11.9"/>
		<path class="st31" d="M-957.2-5529.5l2.1,2.5l2.7,0.2c0,0,1,0.2,0.9,2.5v1.3l3.2,3.3c0,0,1.7,2.6-1.1,2.4l-9.7-7.5
			c0,0-1.1-1.1-0.4-2.2L-957.2-5529.5z"/>
		<path class="st31" d="M-985.1-5559.4v2.6l1.8,2.5c0,0,0.7,1.5-1.1,2.9c0,0-0.6,1-0.5,1.3c0.1,0.3,0.4,3.9,0.4,3.9s0.6,2.7-1.6,1.8
			c-0.1-0.3-3.8-12.1-3.8-12.1c-0.4-0.6-0.2-1.4,0.4-1.8c0.2-0.1,0.4-0.2,0.6-0.2L-985.1-5559.4z"/>
		<rect x="-801.8" y="-5620.4" class="st32" width="181.5" height="126.9"/>
		<path class="st7" d="M-798.8-5635.9h175.5c1.6,0,3,1.3,3,3v12.5l0,0h-181.5l0,0v-12.5C-801.8-5634.5-800.5-5635.9-798.8-5635.9z"
			/>
		<path class="st33" d="M-792-5630.3h65.3c1.5,0,2.7,1.2,2.7,2.7v0c0,1.5-1.2,2.7-2.7,2.7H-792c-1.5,0-2.7-1.2-2.7-2.7v0
			C-794.7-5629.1-793.5-5630.3-792-5630.3z"/>
		<path class="st33" d="M-640.8-5631.3L-640.8-5631.3c1.7,0,3.2,1.4,3.2,3.2l0,0c0,1.7-1.4,3.2-3.2,3.2l0,0c-1.7,0-3.2-1.4-3.2-3.2
			l0,0C-644-5629.9-642.6-5631.3-640.8-5631.3z"/>
		<path class="st33" d="M-630.3-5631.3L-630.3-5631.3c1.7,0,3.2,1.4,3.2,3.2l0,0c0,1.7-1.4,3.2-3.2,3.2l0,0c-1.7,0-3.2-1.4-3.2-3.2
			l0,0C-633.5-5629.9-632.1-5631.3-630.3-5631.3z"/>

		<linearGradient id="grow">
			<stop offset="0" stop-color="#24B8EB">
				<animate dur="8s" attributeName="offset" fill="freeze" values="0;1;1" begin="0s" repeatCount="indefinite"/>
			</stop>
			<stop offset="0" stop-color="#E9F8FD">
				<animate dur="8s" attributeName="offset" fill="freeze" values="0;1;1" repeatCount="indefinite"/>
			</stop>
		</linearGradient>
							
		<linearGradient id="lb" x1="0.5" y1="1" x2="0.5" y2="0">
			<stop offset="0%" stop-opacity="1" stop-color="#D3F1FB"/>
			<stop offset="40%" stop-opacity="1" stop-color="#D3F1FB">
				<animate id="sss" attributeName="offset" values="0;1;1" repeatCount="indefinite" dur="8s" begin="0s"/>
			</stop>
			<stop offset="40%" stop-opacity="0" stop-color="#D3F1FB">
				<animate id="ddd" attributeName="offset" values="0;1;1" repeatCount="indefinite" dur="8s"  begin="0s"/>
			</stop>
			<stop offset="100%" stop-opacity="0" stop-color="#D3F1FB"/>
		</linearGradient>
							
		<linearGradient id="db" x1="0.5" y1="1" x2="0.5" y2="0">
			<stop offset="0%" stop-opacity="1" stop-color="#24B8EB"/>
			<stop offset="40%" stop-opacity="1" stop-color="#24B8EB">
				<animate id="sss" attributeName="offset" values="0;1;1" repeatCount="indefinite" dur="8s" begin="0s"/>
			</stop>
			<stop offset="40%" stop-opacity="0" stop-color="#24B8EB">
				<animate id="ddd" attributeName="offset" values="0;1;1" repeatCount="indefinite" dur="8s"  begin="0s"/>
			</stop>
			<stop offset="100%" stop-opacity="0" stop-color="#24B8EB"/>
		</linearGradient>

		<rect x="-652.4" y="-5582.7" fill="url(#db)" width="12.4" height="60.5"/>
		<rect x="-673.4" y="-5565.8" fill="url(#lb)" width="12.4" height="48.1"/>
		<rect x="-694.5" y="-5549" fill="url(#db)" width="12.4" height="34.8"/>
		<rect x="-716.3" y="-5532.3" fill="url(#lb)" width="12.4" height="18.1"/>
		<path fill="url(#grow)" d="M-663.9-5610.7l0.2,4.9l8.1-0.3l-19.5,19l-8.3-8.1l-39.2,38.7l3.4,3.5l35.8-35.3l8.3,8.1l23.6-23.1v8.3h4.9
			v-16.4L-663.9-5610.7z"/>
		<g transform="translate(138.021 198.935)">
			<path class="st34" d="M-899-5780v164.3c0,8.1-6.5,14.6-14.6,14.6c0,0,0,0,0,0h-72.3c-8.1,0-14.6-6.6-14.6-14.6c0,0,0,0,0,0V-5780
				c0-8.1,6.6-14.6,14.6-14.6h72.3C-905.5-5794.7-899-5788.1-899-5780z"/>
		</g>
		<g transform="translate(142.312 203.227)">
			<path class="st35" d="M-986.8-5795h65.5c7.8,0,14.1,6.3,14.1,14.1v157.5c0,7.8-6.3,14.1-14.1,14.1h-65.5
				c-7.8,0-14.1-6.3-14.1-14.1v-157.5C-1000.8-5788.7-994.5-5795-986.8-5795C-986.8-5795-986.8-5795-986.8-5795z"/>
		</g>
		<g transform="translate(166.994 198.935)">
			<path class="st34" d="M-1002.7-5794.7h48v6.9c0,3.8-3.1,6.9-6.9,6.9h-34.2c-3.8,0-6.9-3.1-6.9-6.9L-1002.7-5794.7z"/>
		</g>
		<g transform="translate(178.257 204.582)">
			<path class="st36" d="M-1000.2-5793.4c0,0.9-0.7,1.7-1.7,1.7s-1.7-0.7-1.7-1.7c0-0.9,0.7-1.7,1.7-1.7h0
				C-1000.9-5795.1-1000.2-5794.3-1000.2-5793.4z"/>
			<g transform="translate(5.196 0.48)">
				<path class="st7" d="M-1002.8-5795.1h20.1c0.6,0,1.1,0.5,1.1,1.1v0.2c0,0.6-0.5,1.1-1.1,1.1h-20.1c-0.6,0-1.1-0.5-1.1-1.1v-0.2
					C-1003.9-5794.6-1003.4-5795.1-1002.8-5795.1z"/>
			</g>
		</g>
		<rect x="-813.3" y="-5444.9" class="st37" width="40" height="26.4"/>
		<rect x="-852.5" y="-5457.6" class="st38" width="33.5" height="23.6"/>
		<rect x="-851.6" y="-5510.1" class="st37" width="78.3" height="48.3"/>
		<rect x="-813.3" y="-5564.1" class="st38" width="40" height="49.9"/>
		<g transform="translate(47.603 263.37)">
			<path class="st39" d="M-957.7-5665.9c-0.1,0.2-1.8,3.1-1.8,3.1l-1.7-0.8v-4.2l2.3-0.1L-957.7-5665.9z"/>
			<path class="st39" d="M-987.7-5691.1l-2.8,3c0,0,0.9,2.1,0.9,2.2c0,0.1,0.8,0.6,0.8,0.6l3-3.5L-987.7-5691.1z"/>
			<path class="st40" d="M-927.8-5734l-28.5-3c0,0-6.3,27.6-32.1,45.1l2.8,4.7c0,0,23-8.3,40.1-34.7c0,0,5,23.8-16.2,54.1l4.4,2.3
				c11.9-11.9,20.6-26.6,25.4-42.8C-932-5708.3-927.8-5724.2-927.8-5734z"/>
			<path class="st41" d="M-916.9-5787.2l-0.2,6.8c0,0-0.1,3.7-3.2,4h-2.6l-1.5,4.4l-7.8-4.1l0.6-3.8l6.2-8.8c0,0,2.6-1.4,2.9-1.2
				C-922.2-5789.8-916.9-5787.2-916.9-5787.2z"/>
			<path class="st42" d="M-967.6-5783c0.1-0.9,0.4-1.8,0.9-2.6c1.3-2.4,3.5-4.1,6.2-4.7c2.2-0.5,4.6-0.4,6.8,0.2
				c1.3,0.5,2.5,1,3.7,1.7c0.7,0.4,1.5,0.6,2.3,0.7c0.9,0.1,1.7-0.1,2.5-0.5c0.8-0.5,1.1-1.2,1.7-1.9c0.7-0.9,1.7-1.6,2.8-2.1
				c3.6-1.5,8.9,1.4,8.1,5.7c-0.3,1.1-1.3,1.8-2.4,1.6c-1.1,0-2.5-0.9-3.4,0c-1,0.9-1,2.5-1.4,3.7c-0.5,1.6-1.2,3-2.1,4.4
				c-1.6,2.1-3.9,3.5-6.5,4c-1.9,0.4-3.8,0.6-5.7,0.5c-1.9,0.1-3.7,0-5.5-0.3c-1.5-0.2-2.9-0.7-4.2-1.5
				C-966.7-5776.2-968.2-5779.6-967.6-5783z"/>
			<path class="st42" d="M-934.8-5782.1c-0.3-0.3-0.5-0.7-0.8-1c-0.5-1-0.7-2.1-0.6-3.2c0.2-2.7,2-5,3.9-6.8c2-1.6,4.5-2.4,7.1-2.1
				c1.2,0.1,2.3,0.4,3.3,0.9c0.5,0.2,1,0.5,1.5,0.9c0.2,0.2,0.4,0.3,0.7,0.5c0.1,0.1,0.3,0.4,0.4,0.4c0,0,4.9,0.8,5.4,4
				c0.2,1.2-1.3,2-2.3,2.1c-0.7,0.1-1.5,0-2.2-0.3c-0.6-0.2-1.1-0.7-1.8-0.6c-0.6,0.1-0.8,0.7-0.9,1.2l0,4l-1.4-2.4
				c-0.4-0.5-1-0.7-1.6-0.6c-2.5,0.5,0.4,3.9,1.3,4.7c0.2,0.2-0.7,1.2-0.8,1.3c-1,0.9-2.2,1.3-3.5,1.3c-0.6,0-1.3-0.1-1.9-0.2
				c-0.7-0.3-1.4-0.7-1.9-1.2c-0.7-0.5-1.4-1-2.1-1.5C-933.7-5781.1-934.3-5781.6-934.8-5782.1z"/>
			<path class="st43" d="M-956.4-5737l28.5,3c0,0-3.6-11.1,7.1-27.5c0,0,26.5,2,36.9-23.8l-3.3-2.8c0,0-13.4,19.4-37.1,16.1
				l-7.8-4.1l-3.6-1.5c-1.7-0.7-3.6-0.8-5.4-0.4c-6.8,1.4-13,5.3-17.7,10.3c-5.2,5.7-9.9,11.9-14,18.4c-0.2,0.3-2.3,3.7-2.2,3.7
				l3.5,2.3c0,0,14.4-21.4,23.9-20.5C-947.6-5763.8-954.9-5754.2-956.4-5737z"/>
			<path class="st44" d="M-881.8-5799.3l-2.8,9.9c0,0,1.2,1.3,1.3,1.2c0.5-0.5,0.9-1.1,1.2-1.7c0.1-0.3,0.7-9.6,0.7-9.6
				L-881.8-5799.3z"/>
			<path class="st41" d="M-882.7-5795.7l-3.4,1.9l-0.4,6.8l2.4,1.3l3.9-4.9l-1.5-5.2l-0.8,3.8l-0.7,2.7c0,0-1.9,0.6-1.3-1.5
				L-882.7-5795.7z"/>
			<path class="st45" d="M-962-5665.2l-1.8,2c0,0-1.7,2.3,2,3.3l10.9,4.3c0,0,4.2-4.6-4.1-7.1l-3.2-1.3
				C-958.2-5664-961.3-5663.1-962-5665.2z"/>
			<path class="st45" d="M-990.3-5688.7c0,0-2.5-0.7-3.4,2.5l7.4,9.5c1.4-0.4,2.3-1.7,2.4-3.1c0,0,0.4-1.8-4.6-7
				c-0.9,0.1-1.7-0.6-1.8-1.5C-990.3-5688.4-990.3-5688.5-990.3-5688.7z"/>
		</g>
		<g transform="translate(104.116 147.032)">
			<path class="st29" d="M-985.5-5783.4l-0.6-0.6l0.9-0.9c1.3-1.4,1.3-3.6-0.1-4.9c-1.4-1.3-3.6-1.3-4.9,0.1c0,0,0,0,0,0l-0.9,0.9
				l-0.6-0.6c-0.3-0.3-0.9-0.3-1.2,0l-4.7,5c-0.3,0.3-0.3,0.9,0,1.2l6.3,5.9c0.3,0.3,0.9,0.3,1.2,0l4.7-5
				C-985.2-5782.6-985.2-5783.1-985.5-5783.4z M-989-5788.5c0.6-0.7,1.7-0.7,2.4-0.1c0.7,0.6,0.7,1.7,0.1,2.4l0,0l-0.9,0.9l-2.5-2.4
				L-989-5788.5z M-990.9-5779l-5-4.7l3.5-3.8l5,4.7L-990.9-5779z"/>
			<path class="st29" d="M-990.7-5784.2c-0.3-0.3-0.9-0.3-1.2,0c0,0,0,0,0,0l-0.6,0.6c-0.3,0.3-0.3,0.9,0,1.2c0.3,0.3,0.9,0.3,1.2,0
				c0,0,0,0,0,0l0.6-0.6C-990.4-5783.3-990.4-5783.9-990.7-5784.2C-990.7-5784.2-990.7-5784.2-990.7-5784.2z"/>
		</g>
	</g>
</g>
</svg>
